<svg xmlns="http://www.w3.org/2000/svg" viewBox="0 0 128 64.76"><defs><style>.cls-1{fill:#dd3226;}.cls-2,.cls-3,.cls-4{fill:#010101;}.cls-3{stroke:#010101;stroke-miterlimit:2.61;stroke-width:0.69px;}.cls-3,.cls-4,.cls-5,.cls-6,.cls-7,.cls-8{fill-rule:evenodd;}.cls-5{fill:#fff;}.cls-6{fill:#ef4723;}.cls-7{fill:#fcee23;}.cls-8{fill:#fed8aa;}.cls-9{fill:#231f20;}</style></defs><title>128</title><g id="Layer_2" data-name="Layer 2"><g id="Layer_1-2" data-name="Layer 1"><path class="cls-1" d="M60.19,9.76h2.33a4.21,4.21,0,0,1,1.2.12,2,2,0,0,1,1,.58,2.58,2.58,0,0,1,.6,1A4.57,4.57,0,0,1,65.48,13a4.42,4.42,0,0,1-.19,1.34,2.79,2.79,0,0,1-.68,1.11,2.2,2.2,0,0,1-.89.51,3.85,3.85,0,0,1-1.13.13h-2.4V9.76Zm1.28,1.06V15h1a3.53,3.53,0,0,0,.77-.06,1.23,1.23,0,0,0,.51-.26,1.3,1.3,0,0,0,.33-.61,4,4,0,0,0,.13-1.16A3.6,3.6,0,0,0,64,11.79a1.31,1.31,0,0,0-.36-.61,1.15,1.15,0,0,0-.59-.3,5.66,5.66,0,0,0-1-.06Zm6,2.07-1.09-.2a1.69,1.69,0,0,1,.63-1,2.37,2.37,0,0,1,1.34-.32,2.87,2.87,0,0,1,1.21.19,1.24,1.24,0,0,1,.56.49,2.57,2.57,0,0,1,.16,1.08l0,1.41a4.77,4.77,0,0,0,.06.89,3,3,0,0,0,.22.61h-1.2a3.34,3.34,0,0,1-.11-.36.82.82,0,0,1,0-.14,2.19,2.19,0,0,1-.67.45,1.86,1.86,0,0,1-.75.15,1.53,1.53,0,0,1-1.11-.38,1.35,1.35,0,0,1-.22-1.66,1.17,1.17,0,0,1,.52-.46,3.87,3.87,0,0,1,1-.28,7.16,7.16,0,0,0,1.17-.3V13a.66.66,0,0,0-.17-.5,1,1,0,0,0-.65-.15.88.88,0,0,0-.5.13.93.93,0,0,0-.3.45Zm1.62,1a7.33,7.33,0,0,1-.74.18,2.09,2.09,0,0,0-.65.21.52.52,0,0,0-.24.43.59.59,0,0,0,.19.44.68.68,0,0,0,.48.18,1.08,1.08,0,0,0,.63-.21.74.74,0,0,0,.28-.4,2,2,0,0,0,0-.59v-.24Zm3.54,2.19H71.4V11.49h1.12v.65a1.92,1.92,0,0,1,.52-.6.93.93,0,0,1,.52-.15,1.57,1.57,0,0,1,.8.23L74,12.67a1.06,1.06,0,0,0-.56-.2.67.67,0,0,0-.43.14,1,1,0,0,0-.28.51,7,7,0,0,0-.1,1.53v1.41Zm1.84-1.3,1.22-.19a.86.86,0,0,0,.31.54,1.08,1.08,0,0,0,.66.18,1.26,1.26,0,0,0,.71-.17.4.4,0,0,0,.16-.32.3.3,0,0,0-.09-.23,1,1,0,0,0-.4-.16,6.6,6.6,0,0,1-1.86-.59,1.18,1.18,0,0,1-.54-1,1.29,1.29,0,0,1,.47-1,2.18,2.18,0,0,1,1.45-.4,2.6,2.6,0,0,1,1.4.3,1.58,1.58,0,0,1,.62.91l-1.14.21a.67.67,0,0,0-.27-.41,1.07,1.07,0,0,0-.59-.14,1.32,1.32,0,0,0-.68.13.31.31,0,0,0-.14.25.28.28,0,0,0,.12.22A4.83,4.83,0,0,0,77,13.2a3.31,3.31,0,0,1,1.35.53,1.14,1.14,0,0,1,.38.9,1.38,1.38,0,0,1-.53,1.08,2.31,2.31,0,0,1-1.55.45,2.52,2.52,0,0,1-1.48-.38,1.73,1.73,0,0,1-.71-1Zm6.53-5v2.31a1.83,1.83,0,0,1,2.15-.53,1.32,1.32,0,0,1,.51.4,1.48,1.48,0,0,1,.23.53,5,5,0,0,1,.06.91v2.68H82.72V13.65a4,4,0,0,0-.06-.91.59.59,0,0,0-.25-.31.73.73,0,0,0-.43-.12,1,1,0,0,0-.54.15.82.82,0,0,0-.35.44,2.74,2.74,0,0,0-.11.87v2.29H79.77V9.76Zm8.33,6.3h-1.2V13.73a3.71,3.71,0,0,0-.08-1,.73.73,0,0,0-.26-.34.76.76,0,0,0-.41-.12,1,1,0,0,0-.57.18.85.85,0,0,0-.34.45A4.06,4.06,0,0,0,86.36,14v2.07H85.15V11.49h1.12v.67a1.84,1.84,0,0,1,1.51-.77,1.94,1.94,0,0,1,.73.14,1.23,1.23,0,0,1,.5.37,1.5,1.5,0,0,1,.24.51,4.17,4.17,0,0,1,.06.81v2.84Zm2.13-3.17-1.09-.2a1.69,1.69,0,0,1,.63-1,2.34,2.34,0,0,1,1.34-.32,2.9,2.9,0,0,1,1.21.19,1.16,1.16,0,0,1,.55.49,2.38,2.38,0,0,1,.17,1.08l0,1.41a4.77,4.77,0,0,0,.06.89,2.52,2.52,0,0,0,.22.61h-1.2a3.34,3.34,0,0,1-.11-.36c0-.07,0-.11,0-.14a2,2,0,0,1-.66.45,1.86,1.86,0,0,1-.75.15,1.53,1.53,0,0,1-1.11-.38,1.35,1.35,0,0,1-.22-1.66,1.2,1.2,0,0,1,.51-.46,4.11,4.11,0,0,1,1-.28,7.16,7.16,0,0,0,1.17-.3V13a.66.66,0,0,0-.17-.5,1,1,0,0,0-.65-.15.91.91,0,0,0-.51.13.92.92,0,0,0-.29.45Zm1.62,1c-.16.05-.4.11-.74.18a2.09,2.09,0,0,0-.65.21.52.52,0,0,0-.24.43.59.59,0,0,0,.19.44.65.65,0,0,0,.48.18,1,1,0,0,0,.62-.21.71.71,0,0,0,.29-.4,2.47,2.47,0,0,0,0-.59v-.24Zm3.28-1-1.1-.2a1.75,1.75,0,0,1,.64-1,2.34,2.34,0,0,1,1.34-.32,2.9,2.9,0,0,1,1.21.19,1.16,1.16,0,0,1,.55.49,2.38,2.38,0,0,1,.17,1.08l0,1.41a4.77,4.77,0,0,0,.06.89,2.52,2.52,0,0,0,.22.61h-1.2a3.34,3.34,0,0,1-.11-.36c0-.07,0-.11,0-.14a2,2,0,0,1-.66.45,1.86,1.86,0,0,1-.75.15,1.53,1.53,0,0,1-1.11-.38,1.24,1.24,0,0,1-.41-1,1.37,1.37,0,0,1,.18-.69,1.29,1.29,0,0,1,.52-.46,4,4,0,0,1,1-.28,7.07,7.07,0,0,0,1.18-.3V13a.66.66,0,0,0-.17-.5,1,1,0,0,0-.65-.15.91.91,0,0,0-.51.13.92.92,0,0,0-.29.45Zm1.62,1c-.16.05-.4.11-.74.18a2.29,2.29,0,0,0-.66.21.54.54,0,0,0-.23.43.59.59,0,0,0,.19.44.65.65,0,0,0,.48.18,1.05,1.05,0,0,0,.62-.21.71.71,0,0,0,.29-.4,2.47,2.47,0,0,0,0-.59v-.24Zm4.58-.92a4,4,0,0,1,.28-1.62,3.19,3.19,0,0,1,.59-.87,2.45,2.45,0,0,1,.82-.56,3.35,3.35,0,0,1,1.35-.25,3,3,0,0,1,2.24.86,3.36,3.36,0,0,1,.83,2.41,3.34,3.34,0,0,1-.83,2.39,3.31,3.31,0,0,1-4.45,0,3.22,3.22,0,0,1-.83-2.36Zm1.31,0a2.37,2.37,0,0,0,.49,1.63,1.71,1.71,0,0,0,2.51,0,2.41,2.41,0,0,0,.48-1.64,2.36,2.36,0,0,0-.47-1.62,1.76,1.76,0,0,0-2.53,0,2.38,2.38,0,0,0-.48,1.62Zm6.69,0-1.1-.2a1.75,1.75,0,0,1,.64-1,2.34,2.34,0,0,1,1.34-.32,2.9,2.9,0,0,1,1.21.19,1.16,1.16,0,0,1,.55.49,2.42,2.42,0,0,1,.16,1.08v1.41a4.77,4.77,0,0,0,.06.89,2.52,2.52,0,0,0,.22.61h-1.2q0-.12-.12-.36a.62.62,0,0,0,0-.14,2.28,2.28,0,0,1-.66.45,1.93,1.93,0,0,1-.75.15,1.53,1.53,0,0,1-1.11-.38,1.24,1.24,0,0,1-.41-1,1.37,1.37,0,0,1,.18-.69,1.29,1.29,0,0,1,.52-.46,3.87,3.87,0,0,1,1-.28,7.07,7.07,0,0,0,1.18-.3V13a.62.62,0,0,0-.18-.5,1,1,0,0,0-.64-.15.91.91,0,0,0-.51.13.86.86,0,0,0-.29.45Zm1.62,1c-.16.05-.4.11-.74.18a2.29,2.29,0,0,0-.66.21.54.54,0,0,0-.23.43.59.59,0,0,0,.19.44.65.65,0,0,0,.48.18,1.05,1.05,0,0,0,.62-.21.76.76,0,0,0,.29-.4,2.47,2.47,0,0,0,0-.59v-.24Zm2.33,2.19V9.76h1.21V13.1l1.42-1.61h1.48L117,13.16l1.68,2.9h-1.31l-1.15-2-.56.59v1.46Zm4.91-6.29h1.21v.87a3.08,3.08,0,0,1-.09.83,1.21,1.21,0,0,1-.34.54,1.76,1.76,0,0,1-.64.38l-.23-.5a1.06,1.06,0,0,0,.52-.33A1.08,1.08,0,0,0,120,11h-.59V9.77Zm1.73,5,1.21-.19a.87.87,0,0,0,.32.54,1,1,0,0,0,.66.18,1.2,1.2,0,0,0,.7-.17.38.38,0,0,0,.16-.32.34.34,0,0,0-.08-.23,1,1,0,0,0-.41-.16,6.61,6.61,0,0,1-1.85-.59,1.18,1.18,0,0,1-.54-1,1.26,1.26,0,0,1,.47-1,2.17,2.17,0,0,1,1.45-.4,2.56,2.56,0,0,1,1.39.3,1.55,1.55,0,0,1,.63.91l-1.14.21a.68.68,0,0,0-.28-.41,1,1,0,0,0-.58-.14,1.27,1.27,0,0,0-.68.13.31.31,0,0,0-.14.25.28.28,0,0,0,.12.22,4.83,4.83,0,0,0,1.13.34,3.38,3.38,0,0,1,1.35.53,1.14,1.14,0,0,1,.38.9,1.38,1.38,0,0,1-.53,1.08,2.33,2.33,0,0,1-1.55.45,2.5,2.5,0,0,1-1.48-.38,1.73,1.73,0,0,1-.71-1Z"/><path class="cls-2" d="M66.37,24.13l-.16-.05a2.44,2.44,0,0,0-.91-1.72,3.46,3.46,0,0,0-2.13-.59,4.61,4.61,0,0,0-3.92,2.3,10.25,10.25,0,0,0-1.54,5.86,5.8,5.8,0,0,0,1.07,3.75A3.81,3.81,0,0,0,61.88,35a6.8,6.8,0,0,0,1.22-.12,11.38,11.38,0,0,0,1.42-.36c.12-.73.22-1.45.3-2.17s.15-1.41.21-2.11l-1.88-.35.16-.5.8.06c1,.09,1.75.13,2.12.13s.72,0,1.18-.05,1.07-.07,1.79-.14l-.16.5-1.62.35c-.13.68-.24,1.34-.32,2s-.14,1.31-.18,2a21.08,21.08,0,0,1-3.6,1.53,10.33,10.33,0,0,1-3,.5,5,5,0,0,1-3.83-1.43,5.66,5.66,0,0,1-1.35-4,10.43,10.43,0,0,1,.75-3.86A10,10,0,0,1,58,23.61a9,9,0,0,1,3-2.05,8.66,8.66,0,0,1,3.47-.74,6.75,6.75,0,0,1,2.61.41q.93.4.93,1.11t-1.53,1.77l0,0Zm6.22,6.3a11.82,11.82,0,0,0-.2,1.19,7.4,7.4,0,0,0-.07,1A2.44,2.44,0,0,0,72.64,34a1.1,1.1,0,0,0,.94.47A2.36,2.36,0,0,0,74.85,34a8.47,8.47,0,0,0,1.52-1.4l.39.39a10.64,10.64,0,0,1-2.54,2.37,4.54,4.54,0,0,1-2.4.91,1.72,1.72,0,0,1-1.39-.59A2.62,2.62,0,0,1,70,34a11.35,11.35,0,0,1,.56-3.4,9.17,9.17,0,0,1,1.41-2.84A8,8,0,0,1,74,25.92a4.31,4.31,0,0,1,2.12-.75,1.5,1.5,0,0,1,1.08.38,1.39,1.39,0,0,1,.39,1.05,3.05,3.05,0,0,1-1.45,2.29,8.08,8.08,0,0,1-3.56,1.54Zm.11-.64a2.75,2.75,0,0,0,1.93-.69,2.2,2.2,0,0,0,.76-1.72,1.18,1.18,0,0,0-.18-.71.67.67,0,0,0-.56-.24c-.42,0-.79.29-1.13.87a8,8,0,0,0-.82,2.49Zm13-1.47a1.79,1.79,0,0,0-.38-.54.7.7,0,0,0-.44-.16c-.61,0-1.29.75-2.06,2.26a17.86,17.86,0,0,0-1.63,5.49l-1.24.49c-.52.21-.86.34-1,.42q.59-2.84,1-5.22a28.71,28.71,0,0,0,.35-3.19.89.89,0,0,0-.09-.45.27.27,0,0,0-.26-.16.92.92,0,0,0-.47.25,8.2,8.2,0,0,0-.73.68l-.34-.32a14.9,14.9,0,0,1,2.1-2A2.84,2.84,0,0,1,82,25.24a.56.56,0,0,1,.49.23,1.33,1.33,0,0,1,.15.72,13.42,13.42,0,0,1-.17,1.59c-.11.76-.26,1.6-.44,2.54h0A20,20,0,0,1,84.4,26.6c.76-.91,1.39-1.36,1.9-1.36a.73.73,0,0,1,.62.31,1.35,1.35,0,0,1,.23.82,1.63,1.63,0,0,1-.37.93,5.19,5.19,0,0,1-1.09,1Zm8.3,8q.6-2.78,1-5.11A26.09,26.09,0,0,0,95.31,28a1.44,1.44,0,0,0-.08-.62.28.28,0,0,0-.27-.17c-.22,0-.56.23-1,.69a11.29,11.29,0,0,0-1.42,1.79,11,11,0,0,0-1.34,2.59,14.12,14.12,0,0,0-.69,3c-.38.15-.94.39-1.67.71l-.6.25c.4-1.88.71-3.61,1-5.2a27,27,0,0,0,.36-3.2.89.89,0,0,0-.1-.47.29.29,0,0,0-.26-.18.91.91,0,0,0-.44.26,7.81,7.81,0,0,0-.75.72l-.35-.33a15.21,15.21,0,0,1,2.13-2,2.83,2.83,0,0,1,1.5-.67.53.53,0,0,1,.48.25,1.35,1.35,0,0,1,.16.75,12.09,12.09,0,0,1-.16,1.54c-.1.73-.26,1.62-.46,2.68a22.73,22.73,0,0,1,3.26-3.79A4.47,4.47,0,0,1,97,25.19a.53.53,0,0,1,.48.25,1.35,1.35,0,0,1,.16.75,11.63,11.63,0,0,1-.1,1.17c-.08.52-.24,1.55-.49,3.11a21.78,21.78,0,0,1,3.23-3.83,4.51,4.51,0,0,1,2.51-1.45.75.75,0,0,1,.57.21,1.16,1.16,0,0,1,.17.7c0,.18-.14,1.06-.41,2.65l-.15.87c-.19,1.06-.33,1.91-.42,2.56a11.07,11.07,0,0,0-.13,1.41.8.8,0,0,0,.06.34c.05.09.1.13.17.13a.8.8,0,0,0,.45-.19,4.29,4.29,0,0,0,.62-.61l.36.3a12.51,12.51,0,0,1-1.82,1.93,2.29,2.29,0,0,1-1.37.64.67.67,0,0,1-.59-.29,1.63,1.63,0,0,1-.19-.9,21.74,21.74,0,0,1,.5-3.77,22,22,0,0,0,.5-3.43.67.67,0,0,0-.09-.4.3.3,0,0,0-.27-.13c-.22,0-.55.21-1,.63a13.41,13.41,0,0,0-1.4,1.71A12.2,12.2,0,0,0,97,32.22a13.4,13.4,0,0,0-.71,3.11l-1.1.45-1.17.5Zm18.9-9.59c-.25,0-.56,0-.93,0l-.75,0a2.39,2.39,0,0,0-1.4.37,3,3,0,0,0-.91,1.22,13.25,13.25,0,0,0-.8,2.64,13.08,13.08,0,0,0-.34,2.76,1.38,1.38,0,0,0,.11.61.35.35,0,0,0,.32.2c.58,0,1.41-.79,2.48-2.36a14.58,14.58,0,0,0,2.22-5.35Zm-.8,4.33a18.28,18.28,0,0,1-3.14,3.7,4.61,4.61,0,0,1-2.55,1.43.7.7,0,0,1-.63-.4,2.67,2.67,0,0,1-.21-1.19,9.8,9.8,0,0,1,2.24-6.76,7.59,7.59,0,0,1,6-2.53h1.57a43.88,43.88,0,0,0-1.08,4.67,22.74,22.74,0,0,0-.4,3.5,1.2,1.2,0,0,0,.08.5.25.25,0,0,0,.24.17.51.51,0,0,0,.29-.14,7.15,7.15,0,0,0,.61-.62l.38.33a10.77,10.77,0,0,1-1.83,1.82,2.61,2.61,0,0,1-1.4.67.61.61,0,0,1-.54-.28,1.41,1.41,0,0,1-.19-.81,11.34,11.34,0,0,1,.13-1.48c.1-.65.25-1.5.46-2.56Zm5.42,5.26c.39-1.89.71-3.63.94-5.23a26.92,26.92,0,0,0,.36-3.19.88.88,0,0,0-.09-.44.28.28,0,0,0-.26-.16.92.92,0,0,0-.47.25,6.93,6.93,0,0,0-.73.68l-.35-.33a15.78,15.78,0,0,1,2.13-2,2.85,2.85,0,0,1,1.51-.67.54.54,0,0,1,.48.25,1.35,1.35,0,0,1,.16.75,13,13,0,0,1-.18,1.65c-.11.79-.27,1.71-.48,2.77A22,22,0,0,1,124,26.73c1.21-1,2.09-1.54,2.66-1.54a.65.65,0,0,1,.5.18.72.72,0,0,1,.17.52,23.17,23.17,0,0,1-.56,3.62,21.64,21.64,0,0,0-.57,4.08.66.66,0,0,0,.08.34.19.19,0,0,0,.17.13.77.77,0,0,0,.44-.19,4.28,4.28,0,0,0,.63-.61l.36.3a12.51,12.51,0,0,1-1.82,1.93,2.29,2.29,0,0,1-1.38.64.66.66,0,0,1-.58-.29,1.63,1.63,0,0,1-.19-.9,21.39,21.39,0,0,1,.51-3.76,21.26,21.26,0,0,0,.51-3.54.72.72,0,0,0-.08-.35.27.27,0,0,0-.23-.12c-.25,0-.6.22-1.08.66A14.92,14.92,0,0,0,122,29.64a11.38,11.38,0,0,0-1.48,2.67,12.25,12.25,0,0,0-.7,3c-.33.11-.68.24-1,.39s-.79.33-1.29.56Z"/><path class="cls-2" d="M59.22,42.75c-.3.53-.58,1-.85,1.55s-.51,1-.74,1.46h2.25c-.08-.41-.16-.84-.26-1.31s-.24-1-.4-1.7Zm.9-1.19a28.5,28.5,0,0,0,.49,3c.24,1.17.55,2.41.92,3.73l.87.17-.08.23-.65,0H60.16l-.77,0,.09-.23.82-.17c0-.25-.06-.56-.12-.91s-.13-.79-.23-1.3H57.48c-.26.51-.47.94-.62,1.3a7.54,7.54,0,0,0-.33.91l.88.17-.08.23-.57,0H55.34l-.58,0,.06-.23.82-.17q1.62-2.62,2.57-4.35a7.79,7.79,0,0,0,.94-2.08s0,0,0,0,0,0,0,0l1-.27Zm5.82.22.42,0c.54,0,.92.06,1.11.06s.61,0,1.2-.06l.33,0-.08.23-.89.17c-.1.47-.19.94-.28,1.41s-.16,1-.23,1.46a22.39,22.39,0,0,0,1.83-1.5,10,10,0,0,0,1.26-1.37L69.89,42l.09-.23.65.06c.21,0,.42,0,.63,0a5.43,5.43,0,0,0,.55,0l.72-.06-.09.23-.69.17c-.47.32-.94.67-1.42,1s-1,.8-1.5,1.27a19.23,19.23,0,0,0,1.88,3.1,2.1,2.1,0,0,0,1.37.88L72,48.7h-.89a3,3,0,0,1-.6-.05,1,1,0,0,1-.37-.19,4.6,4.6,0,0,1-.8-1c-.34-.53-.79-1.3-1.33-2.3l-.54.41q-.1.82-.18,1.5c0,.45-.07.87-.1,1.27l.94.17L68,48.7l-.7,0H65.66l-.7,0,.08-.23.9-.17q.36-1.8.57-3.33c.14-1,.24-1.94.29-2.79L65.86,42l.08-.23Zm12.71,1c-.3.53-.59,1-.85,1.55s-.52,1-.74,1.46h2.25c-.08-.41-.17-.84-.27-1.31s-.23-1-.39-1.7Zm.9-1.19a26.12,26.12,0,0,0,.49,3c.24,1.17.54,2.41.91,3.73l.88.17-.08.23-.66,0h-1.5l-.77,0,.08-.23.83-.17c0-.25-.07-.56-.12-.91s-.13-.79-.23-1.3H76.9c-.26.51-.46.94-.61,1.3a7.54,7.54,0,0,0-.33.91l.88.17-.08.23-.57,0H74.77l-.59,0,.07-.23.81-.17C76.15,46.55,77,45.1,77.63,44a8,8,0,0,0,1-2.08v0l1-.27Zm4.84,7.14.07-.23.9-.17c.24-1.2.43-2.31.58-3.33s.23-1.94.28-2.79L85.28,42l.09-.23.88,0c.27,0,.51,0,.71,0s.63,0,1.15-.06.92,0,1.2,0a2.56,2.56,0,0,1,1.88.61,2.53,2.53,0,0,1,.63,1.88,5,5,0,0,1-.37,1.89,4.33,4.33,0,0,1-1,1.53,3.55,3.55,0,0,1-1.34.8,5.9,5.9,0,0,1-1.88.25l-.64,0-.83,0h-.5l-.83,0Zm2.2-.49a4.85,4.85,0,0,0,.57.09,5.74,5.74,0,0,0,.6,0,2.56,2.56,0,0,0,2.17-.92,4.56,4.56,0,0,0,.71-2.8,2.83,2.83,0,0,0-.53-1.86,1.85,1.85,0,0,0-1.52-.64,2.93,2.93,0,0,0-.49,0c-.18,0-.4.05-.65.1-.21.91-.39,1.87-.53,2.87s-.25,2-.33,3.09Zm9-6.42,1.13.06c.37,0,.79,0,1.25,0s1,0,1.47,0l.83,0a.21.21,0,0,1,.15.05.3.3,0,0,1,0,.18.46.46,0,0,1,0,.1.43.43,0,0,1,0,.05l-.23,1-.23,0v-.44c0-.14-.13-.24-.38-.31a16.27,16.27,0,0,0-1.95-.18c-.09.36-.17.77-.25,1.22s-.16.94-.23,1.46c.32,0,.65,0,1,0l1-.07.25-.57.27-.1a8.78,8.78,0,0,0-.25.95c-.06.33-.12.66-.16,1l-.24.14,0-.84-.87-.09-1-.05c-.09.6-.16,1.14-.2,1.62s-.09.93-.1,1.33h.42a9,9,0,0,0,1.92-.15,1.1,1.1,0,0,0,.8-.49l.17-.31.24-.07L100,48.37a.69.69,0,0,1-.14.29.82.82,0,0,1-.35.05h-.46c-.87,0-1.7-.05-2.49-.05-.5,0-.9,0-1.18,0l-.82,0,.07-.24.9-.17c.23-1.11.42-2.18.56-3.2s.24-2,.3-2.91L95.47,42l.08-.22Zm7.23,6.91.09-.23.9-.17c.29-.76.59-1.65.89-2.69s.6-2.17.89-3.43l-1-.17.09-.22.68.06c.23,0,.45,0,.67,0h.24l.4,0c.09.7.22,1.48.4,2.34s.39,1.81.65,2.82l1.9-3.19q.27-.48.51-1t.45-1l.37,0h.45c.23,0,.47,0,.7,0s.47,0,.71-.06l-.08.22-.9.17c-.15,1-.27,1.92-.35,2.89s-.12,1.92-.12,2.87v.36l.95.17-.07.23-.69,0H109.9l-.69,0,.08-.23.9-.17c.11-.83.2-1.71.28-2.63s.14-1.88.18-2.89c-.17.27-.36.55-.55.86l-.65,1.09-.59,1c-.36.63-.62,1.11-.78,1.45a4.78,4.78,0,0,0-.34.92l-.74.43a25.62,25.62,0,0,0-.53-2.66c-.3-1.29-.52-2.34-.65-3.14-.29,1-.54,2-.73,2.89s-.33,1.81-.42,2.66l.9.17-.09.23-.68,0h-1.41l-.61,0Zm12.4,0,.08-.23.89-.17c.23-1.13.42-2.2.56-3.22s.25-2,.3-2.9l-.92-.17.07-.23.89.06c.24,0,.46,0,.65,0s.56,0,1.09-.06l.42,0-.07.23-.89.17q-.36,1.71-.57,3.24c-.15,1-.24,2-.29,2.88l.93.17-.09.23-.68,0h-1.68l-.69,0Zm7.26-6.91,1.14.06c.37,0,.79,0,1.25,0s1,0,1.47,0l.83,0a.21.21,0,0,1,.15.05.4.4,0,0,1,0,.18s0,0,0,.1a.11.11,0,0,0,0,.05l-.23,1-.23,0v-.44c0-.14-.13-.24-.39-.31a15.76,15.76,0,0,0-1.94-.18c-.09.36-.17.77-.25,1.22s-.16.94-.23,1.46c.32,0,.65,0,1,0l1-.07.25-.57.27-.1c-.09.3-.17.62-.24.95s-.12.66-.16,1l-.24.14v-.84l-.86-.09L124,45.29c-.08.6-.15,1.14-.2,1.62s-.08.93-.09,1.33h.41a9,9,0,0,0,1.93-.15,1.12,1.12,0,0,0,.8-.49l.16-.31.24-.07-.33,1.15a.72.72,0,0,1-.13.29.84.84,0,0,1-.36.05H126c-.87,0-1.7-.05-2.49-.05-.51,0-.9,0-1.19,0l-.82,0,.08-.24.89-.17c.24-1.11.42-2.18.57-3.2s.24-2,.3-2.91l-.93-.18.07-.22Z"/><polygon class="cls-3" points="11.64 9.89 11.39 18.45 26.88 21.57 42.95 18.53 43.05 7.27 11.64 9.89 11.64 9.89"/><polygon class="cls-4" points="0 6.52 27.38 0 53.03 6.64 28.31 14.71 0 6.52 0 6.52"/><polygon class="cls-5" points="6.79 7.26 30.38 1.69 28.18 1.16 4.98 6.71 6.79 7.26 6.79 7.26"/><polygon class="cls-4" points="6.45 8.1 7.68 8.1 7.68 31.88 6.45 31.88 6.45 8.1 6.45 8.1"/><path class="cls-4" d="M7.07,31.11a1.67,1.67,0,1,1-1.6,1.66,1.64,1.64,0,0,1,1.6-1.66Z"/><polygon class="cls-6" points="32.18 46.38 22.07 46.38 22.07 22.38 26.85 23.53 32.1 22.41 32.18 46.38 32.18 46.38"/><polygon class="cls-4" points="11.37 19.78 22.07 22.38 22.07 46.38 11.64 46.38 11.37 19.78 11.37 19.78"/><polygon class="cls-7" points="42.61 19.98 32.09 22.53 32.18 46.38 42.61 46.38 42.61 19.98 42.61 19.98"/><polygon class="cls-8" points="12.14 46.61 41.69 46.58 30.2 59.98 23.94 59.95 12.14 46.61 12.14 46.61"/><path class="cls-2" d="M27,64.76,10.88,46.22,11,19.6,26.7,22.88l16.42-3.29-.4,27ZM11.9,45.84,27,63.19l14.69-17,.38-25.33L26.7,23.93,12,20.86Z"/><polygon class="cls-4" points="23.58 59.78 30.67 59.78 27.05 64.53 23.58 59.78 23.58 59.78"/><rect class="cls-2" x="11.69" y="45.87" width="30.41" height="1.02"/><path class="cls-9" d="M128,51H54.38v-.37H128Zm0-11.91H54.38v-.37H128Z"/></g></g></svg>