<svg xmlns="http://www.w3.org/2000/svg" viewBox="0 0 16 8.09"><defs><style>.cls-1{fill:#dd3226;}.cls-2,.cls-3{fill:#010101;}.cls-3,.cls-4,.cls-5,.cls-6,.cls-7{fill-rule:evenodd;}.cls-4{fill:#fff;}.cls-5{fill:#ef4723;}.cls-6{fill:#fcee23;}.cls-7{fill:#fed8aa;}.cls-8{fill:#231f20;}</style></defs><title>16</title><g id="Layer_2" data-name="Layer 2"><g id="Layer_1-2" data-name="Layer 1"><path class="cls-1" d="M7.52,1.22H8a.28.28,0,0,1,.11.08.25.25,0,0,1,.08.12.58.58,0,0,1,0,.19.44.44,0,0,1,0,.17.47.47,0,0,1-.08.14A.34.34,0,0,1,8,2L7.82,2h-.3V1.22Zm.16.13v.52H7.9s0,0,.06,0,0,0,0-.07a.61.61,0,0,0,0-.15.52.52,0,0,0,0-.14A.16.16,0,0,0,8,1.4l-.07,0H7.68Zm.75.26-.14,0a.32.32,0,0,1,.08-.13.39.39,0,0,1,.17,0,.28.28,0,0,1,.15,0,.09.09,0,0,1,.07.06s0,.07,0,.13v.18a.31.31,0,0,0,0,.11.16.16,0,0,0,0,.08H8.67s0,0,0,0h0L8.56,2,8.47,2A.2.2,0,0,1,8.33,2a.17.17,0,0,1-.05-.12.19.19,0,0,1,0-.08.13.13,0,0,1,.07-.06.24.24,0,0,1,.12,0l.14,0v0s0-.05,0-.06a.13.13,0,0,0-.08,0s0,0-.06,0a.07.07,0,0,0,0,.05Zm.2.12-.09,0-.08,0a.07.07,0,0,0,0,.06.08.08,0,0,0,0,0,.07.07,0,0,0,.06,0,.11.11,0,0,0,.08,0l0,0V1.73ZM9.08,2H8.92V1.44h.15v.08a.18.18,0,0,1,.06-.08l.07,0a.16.16,0,0,1,.09,0l0,.13-.07,0a.07.07,0,0,0-.06,0,.16.16,0,0,0,0,.06.82.82,0,0,0,0,.19V2Zm.23-.17.15,0a.1.1,0,0,0,0,.07.15.15,0,0,0,.08,0l.09,0a.05.05,0,0,0,0,0s0,0,0,0l0,0a1.07,1.07,0,0,1-.23-.07.15.15,0,0,1-.07-.13.18.18,0,0,1,.06-.13.3.3,0,0,1,.18-.05.35.35,0,0,1,.17,0,.18.18,0,0,1,.08.11l-.14,0a.1.1,0,0,0,0-.05l-.07,0-.09,0a.05.05,0,0,0,0,.06l.14,0a.39.39,0,0,1,.17.07.13.13,0,0,1,.05.11A.15.15,0,0,1,9.77,2,.25.25,0,0,1,9.58,2,.3.3,0,0,1,9.4,2a.18.18,0,0,1-.09-.13Zm.81-.62v.29a.23.23,0,0,1,.18-.09l.09,0s0,0,.06.05a.09.09,0,0,1,0,.07.31.31,0,0,1,0,.11V2h-.15v-.3a.35.35,0,0,0,0-.12.05.05,0,0,0,0,0h-.05l-.07,0a.1.1,0,0,0,0,.05.31.31,0,0,0,0,.11V2H10V1.22Zm1,.79H11V1.72c0-.07,0-.11,0-.12a.05.05,0,0,0,0-.05h-.05l-.07,0s0,0,0,.06a.35.35,0,0,0,0,.13V2h-.15V1.44h.14v.08a.26.26,0,0,1,.19-.1l.09,0a.18.18,0,0,1,.07.05l0,.06V2Zm.27-.4-.14,0a.32.32,0,0,1,.08-.13.39.39,0,0,1,.17,0,.28.28,0,0,1,.15,0,.11.11,0,0,1,.07.06.35.35,0,0,1,0,.13v.18a.31.31,0,0,0,0,.11.31.31,0,0,0,0,.08h-.15a.11.11,0,0,0,0,0h0L11.56,2l-.09,0A.2.2,0,0,1,11.33,2a.13.13,0,0,1-.05-.12.19.19,0,0,1,0-.08.13.13,0,0,1,.07-.06.24.24,0,0,1,.12,0l.14,0v0s0-.05,0-.06a.13.13,0,0,0-.08,0s0,0-.06,0a.07.07,0,0,0,0,.05Zm.2.12-.09,0-.08,0a.07.07,0,0,0,0,.06.08.08,0,0,0,0,0,.07.07,0,0,0,.06,0,.11.11,0,0,0,.08,0l0,0V1.73ZM12,1.61l-.13,0A.2.2,0,0,1,12,1.46a.31.31,0,0,1,.16,0,.28.28,0,0,1,.15,0,.09.09,0,0,1,.07.06s0,.07,0,.13v.18a.31.31,0,0,0,0,.11.16.16,0,0,0,0,.08h-.15s0,0,0,0h0L12.17,2l-.09,0A.2.2,0,0,1,11.94,2a.17.17,0,0,1,0-.12.19.19,0,0,1,0-.08A.13.13,0,0,1,12,1.71a.34.34,0,0,1,.12,0l.14,0v0s0-.05,0-.06l-.08,0s-.05,0-.06,0a.07.07,0,0,0,0,.05Zm.2.12-.09,0-.08,0a.07.07,0,0,0,0,.06.08.08,0,0,0,0,0,.07.07,0,0,0,.06,0,.11.11,0,0,0,.08,0l0,0V1.73Zm.58-.11a.56.56,0,0,1,0-.2.44.44,0,0,1,.08-.11.23.23,0,0,1,.1-.07.43.43,0,0,1,.17,0,.39.39,0,0,1,.28.1.44.44,0,0,1,.1.3.4.4,0,0,1-.1.3.41.41,0,0,1-.56,0,.39.39,0,0,1-.1-.29Zm.16,0a.33.33,0,0,0,.06.21.22.22,0,0,0,.32,0,.33.33,0,0,0,.06-.21.28.28,0,0,0-.06-.2.22.22,0,0,0-.32,0,.28.28,0,0,0-.06.2Zm.84,0-.14,0a.24.24,0,0,1,.08-.13.35.35,0,0,1,.17,0,.28.28,0,0,1,.15,0,.13.13,0,0,1,.07.06.35.35,0,0,1,0,.13v.29l0,.08h-.15a.43.43,0,0,1,0,0h0L14,2l-.1,0A.19.19,0,0,1,13.72,2a.14.14,0,0,1-.06-.12.11.11,0,0,1,0-.08.09.09,0,0,1,.06-.06.34.34,0,0,1,.12,0l.15,0v0a.08.08,0,0,0,0-.06.15.15,0,0,0-.08,0,.08.08,0,0,0-.07,0,.11.11,0,0,0,0,.05Zm.2.12-.09,0-.08,0a.07.07,0,0,0,0,.06s0,0,0,0a.07.07,0,0,0,.06,0,.12.12,0,0,0,.08,0s0,0,0,0a.17.17,0,0,0,0-.08v0Zm.29.28V1.22h.15v.42l.18-.2h.19l-.2.21.21.36h-.16l-.15-.26-.07.07V2Zm.62-.79h.15v.11s0,.08,0,.1A.18.18,0,0,1,15,1.5a.16.16,0,0,1-.08.05l0-.06A.13.13,0,0,0,15,1.44a.12.12,0,0,0,0-.07h-.07V1.22Zm.21.62.15,0a.16.16,0,0,0,0,.07l.08,0,.09,0s0,0,0,0a0,0,0,0,0,0,0l0,0a1.07,1.07,0,0,1-.23-.07.15.15,0,0,1-.07-.13.18.18,0,0,1,.06-.13.3.3,0,0,1,.18-.05.4.4,0,0,1,.18,0,.31.31,0,0,1,.08.11l-.15,0a.05.05,0,0,0,0-.05l-.07,0-.09,0s0,0,0,0,0,0,0,0l.14,0a.39.39,0,0,1,.17.07.12.12,0,0,1,0,.11.16.16,0,0,1-.06.13.28.28,0,0,1-.2.06A.35.35,0,0,1,15.23,2a.21.21,0,0,1-.09-.13Z"/><path class="cls-2" d="M8.3,3h0a.34.34,0,0,0-.12-.22.47.47,0,0,0-.26-.07A.58.58,0,0,0,7.41,3a1.26,1.26,0,0,0-.2.73.71.71,0,0,0,.14.47.47.47,0,0,0,.39.16h.15l.17-.05A2.51,2.51,0,0,0,8.1,4l0-.26-.24,0,0-.07H8l.27,0h.15l.22,0,0,.07-.2,0a2.17,2.17,0,0,0,0,.25l0,.25c-.16.08-.31.14-.44.19a1.42,1.42,0,0,1-.38.06.62.62,0,0,1-.48-.18.73.73,0,0,1-.17-.51A1.18,1.18,0,0,1,7,3.36,1.25,1.25,0,0,1,7.25,3a1.12,1.12,0,0,1,.37-.26,1.07,1.07,0,0,1,.43-.09,1,1,0,0,1,.33,0c.07,0,.11.08.11.14s-.06.13-.19.22Zm.77.78a1,1,0,0,0,0,.15.62.62,0,0,0,0,.13.29.29,0,0,0,0,.17.14.14,0,0,0,.12.06.29.29,0,0,0,.16-.06,1.48,1.48,0,0,0,.19-.18l0,0a1.79,1.79,0,0,1-.32.3.65.65,0,0,1-.3.11.21.21,0,0,1-.18-.07.33.33,0,0,1-.06-.21,1.68,1.68,0,0,1,.07-.43A1.14,1.14,0,0,1,9,3.47a1,1,0,0,1,.26-.23.54.54,0,0,1,.27-.09.18.18,0,0,1,.13,0,.21.21,0,0,1,0,.13.38.38,0,0,1-.18.29.92.92,0,0,1-.45.19Zm0-.08a.36.36,0,0,0,.24-.08.29.29,0,0,0,.09-.22s0-.07,0-.09a.08.08,0,0,0-.07,0c-.05,0-.1,0-.14.11a.94.94,0,0,0-.1.31Zm1.62-.18a.18.18,0,0,0-.05-.07l-.05,0c-.08,0-.16.1-.26.29a2.28,2.28,0,0,0-.2.68L10,4.48a.36.36,0,0,1-.13,0c.05-.23.09-.45.12-.65a3.73,3.73,0,0,0,0-.4.43.43,0,0,0,0,0s0,0,0,0l-.06,0-.09.08,0,0a2.51,2.51,0,0,1,.26-.24.32.32,0,0,1,.19-.08s0,0,.06,0,0,0,0,.09a.87.87,0,0,1,0,.2c0,.1,0,.2-.05.32h0a2,2,0,0,1,.3-.46c.09-.12.17-.17.24-.17a.08.08,0,0,1,.07,0,.18.18,0,0,1,0,.11.19.19,0,0,1,0,.11.6.6,0,0,1-.14.13Zm1,1q.08-.35.12-.63a3,3,0,0,0,0-.4.17.17,0,0,0,0-.08s0,0,0,0-.07,0-.13.09a1.42,1.42,0,0,0-.18.22A1.44,1.44,0,0,0,11.4,4a1.82,1.82,0,0,0-.09.37l-.21.09-.07,0a5.89,5.89,0,0,0,.11-.65,2.16,2.16,0,0,0,0-.4.13.13,0,0,0,0-.06.05.05,0,0,0,0,0l-.05,0a.38.38,0,0,0-.09.09l-.05,0a1.94,1.94,0,0,1,.27-.25.37.37,0,0,1,.19-.08l.06,0a.2.2,0,0,1,0,.09s0,.1,0,.2,0,.2-.06.33a2.46,2.46,0,0,1,.41-.47.55.55,0,0,1,.3-.18.06.06,0,0,1,.06,0s0,0,0,.09a.86.86,0,0,1,0,.15l-.06.39a2.54,2.54,0,0,1,.4-.48.58.58,0,0,1,.32-.18.09.09,0,0,1,.07,0,.13.13,0,0,1,0,.08s0,.13,0,.33l0,.11a2.86,2.86,0,0,0,0,.32c0,.08,0,.14,0,.18s0,0,0,0l0,0,.05,0s0,0,.08-.07l0,0a2.76,2.76,0,0,1-.23.24.29.29,0,0,1-.17.08.08.08,0,0,1-.07,0,.16.16,0,0,1,0-.11,2.7,2.7,0,0,1,.06-.47,2.21,2.21,0,0,0,.07-.43.2.2,0,0,0,0-.05l0,0s-.07,0-.12.08a1.39,1.39,0,0,0-.17.21,1.24,1.24,0,0,0-.18.34,1.87,1.87,0,0,0-.09.39l-.13,0-.15.06Zm2.36-1.19H13.9a.29.29,0,0,0-.17,0,.31.31,0,0,0-.12.15,1.87,1.87,0,0,0-.1.33,1.56,1.56,0,0,0,0,.35s0,.06,0,.07a.05.05,0,0,0,0,0c.08,0,.18-.1.31-.29a1.74,1.74,0,0,0,.28-.67Zm-.1.54a2.29,2.29,0,0,1-.39.46.58.58,0,0,1-.32.18.1.1,0,0,1-.08,0,.28.28,0,0,1,0-.15,1.21,1.21,0,0,1,.29-.84.9.9,0,0,1,.74-.32h.2c-.06.2-.1.39-.14.58a3.25,3.25,0,0,0,0,.44.35.35,0,0,0,0,.06l0,0,0,0,.08-.07,0,0a1.66,1.66,0,0,1-.23.23.36.36,0,0,1-.17.08.08.08,0,0,1-.07,0s0-.05,0-.1a1.36,1.36,0,0,1,0-.18c0-.08,0-.19.06-.32Zm.68.65c.05-.23.09-.45.12-.65a3,3,0,0,0,0-.4.07.07,0,0,0,0,0s0,0,0,0,0,0-.06,0l-.09.08-.05,0,.27-.25a.41.41,0,0,1,.19-.08.06.06,0,0,1,.06,0,.2.2,0,0,1,0,.09s0,.11,0,.21,0,.21-.06.35a2.64,2.64,0,0,1,.43-.49.69.69,0,0,1,.34-.19l.06,0a.14.14,0,0,1,0,.07,2.58,2.58,0,0,1-.07.45,2.41,2.41,0,0,0-.07.51s0,0,0,0l0,0,.06,0a.45.45,0,0,0,.07-.07l.05,0a2.76,2.76,0,0,1-.23.24.29.29,0,0,1-.17.08.08.08,0,0,1-.07,0,.16.16,0,0,1,0-.11,2.19,2.19,0,0,1,.07-.47,2.83,2.83,0,0,0,.06-.44.07.07,0,0,0,0,0h0s-.07,0-.13.08a1.5,1.5,0,0,0-.2.22,1.24,1.24,0,0,0-.18.34,1.12,1.12,0,0,0-.09.38l-.13,0-.16.06Z"/><path class="cls-2" d="M7.4,5.34l-.1.2a1.62,1.62,0,0,0-.1.18h.28a1.1,1.1,0,0,0,0-.16c0-.06,0-.13,0-.22Zm.11-.15c0,.11,0,.24.07.38s.06.3.11.47l.11,0v0H7.42v0l.11,0s0-.07,0-.12a.61.61,0,0,0,0-.16H7.18l-.07.16s0,.09,0,.12l.11,0v0H6.84v0L7,6c.14-.22.25-.4.33-.55a1.09,1.09,0,0,0,.11-.26h0l.12,0Zm.73,0h.38v0l-.12,0,0,.18,0,.18a2.33,2.33,0,0,0,.23-.19,1.25,1.25,0,0,0,.16-.17l-.09,0v0h.32v0L9,5.27l-.18.13-.19.16A2.33,2.33,0,0,0,8.84,6c.06.07.11.11.17.11v0H8.81l-.05,0-.1-.13L8.5,5.64l-.07.05a1.37,1.37,0,0,0,0,.19A.92.92,0,0,0,8.4,6l.11,0v0H8.12v0l.11,0a3.67,3.67,0,0,0,.07-.42c0-.13,0-.24,0-.35l-.12,0v0Zm1.59.12-.11.2-.09.18h.28l0-.16c0-.06,0-.13-.05-.22Zm.11-.15a3.26,3.26,0,0,0,.06.38c0,.15.07.3.12.47l.11,0v0H9.85v0L10,6s0-.07,0-.12a1.57,1.57,0,0,1,0-.16H9.61a1,1,0,0,0-.07.16l0,.12.11,0v0H9.27v0l.1,0a5.27,5.27,0,0,0,.32-.55.91.91,0,0,0,.12-.26h0l.12,0Zm.61.9v0l.11,0c0-.15.05-.29.07-.42s0-.24,0-.35l-.12,0v0h.49a.33.33,0,0,1,.24.07.35.35,0,0,1,.08.24.69.69,0,0,1-.05.24A.59.59,0,0,1,11.3,6a.48.48,0,0,1-.17.1.75.75,0,0,1-.23,0h-.35ZM10.82,6H11a.34.34,0,0,0,.27-.11.58.58,0,0,0,.09-.35.34.34,0,0,0-.07-.24.23.23,0,0,0-.19-.08h-.14c0,.12,0,.24-.07.36s0,.25,0,.39Zm1.12-.81h.61v0h0l0,.12h0V5.34s0,0,0,0l-.25,0,0,.15,0,.19h.25l0-.08h0l0,.12a.69.69,0,0,1,0,.13h0v-.1h-.24c0,.08,0,.14,0,.2a1,1,0,0,0,0,.17h.05l.24,0s.09,0,.1-.06l0,0h0l0,.15s0,0,0,0h-.66v0l.11,0c0-.14.05-.28.07-.4s0-.25,0-.37l-.12,0v0Zm.91.87v0L13,6c0-.1.07-.21.11-.34a3.83,3.83,0,0,0,.11-.43l-.12,0,0,0h.24c0,.09,0,.19.05.29s0,.23.09.36l.23-.4a.75.75,0,0,0,.07-.12.69.69,0,0,0,.05-.13h.28v0l-.11,0c0,.12,0,.24,0,.36s0,.24,0,.36V6l.12,0v0h-.38v0l.11,0c0-.11,0-.22,0-.33s0-.24,0-.36l-.07.11-.08.13-.07.13-.1.18a.76.76,0,0,0,0,.11l-.1.06a1.65,1.65,0,0,0-.06-.33,3.47,3.47,0,0,1-.08-.4,3.15,3.15,0,0,0-.09.36,2.21,2.21,0,0,0-.06.34l.12,0,0,0h-.33Zm1.55,0v0l.11,0c0-.14.05-.28.07-.41s0-.24,0-.36l-.12,0v0h.38v0l-.11,0c0,.14,0,.28-.07.41s0,.25,0,.36l.12,0v0H14.4Zm.91-.87h.6v0h0l0,.12h0V5.34s0,0,0,0l-.25,0,0,.15,0,.19h.25l0-.08h0a.53.53,0,0,0,0,.12.51.51,0,0,0,0,.13h0v-.1H15.5c0,.08,0,.14,0,.2s0,.12,0,.17h0l.24,0c.06,0,.09,0,.1-.06l0,0h0l0,.15a0,0,0,0,1,0,0h-.67v0l.11,0a3.38,3.38,0,0,0,.07-.4,2.46,2.46,0,0,0,0-.37l-.11,0v0Z"/><polygon class="cls-3" points="1.46 1.24 1.42 2.31 3.36 2.7 5.37 2.32 5.38 0.91 1.46 1.24 1.46 1.24"/><path class="cls-2" d="M3.36,2.72h0l-2-.4,0-1.1h0l4-.32V2.33ZM1.45,2.29l1.91.38,2-.37V.93l-3.88.33Z"/><polygon class="cls-3" points="0 0.81 3.42 0 6.63 0.83 3.54 1.84 0 0.81 0 0.81"/><polygon class="cls-4" points="0.85 0.91 3.8 0.21 3.52 0.14 0.62 0.84 0.85 0.91 0.85 0.91"/><polygon class="cls-3" points="0.81 1.01 0.96 1.01 0.96 3.98 0.81 3.98 0.81 1.01 0.81 1.01"/><path class="cls-3" d="M.88,3.89a.2.2,0,0,1,.2.21.2.2,0,0,1-.4,0,.2.2,0,0,1,.2-.21Z"/><polygon class="cls-5" points="4.02 5.8 2.76 5.8 2.76 2.8 3.36 2.94 4.01 2.8 4.02 5.8 4.02 5.8"/><polygon class="cls-3" points="1.42 2.47 2.76 2.8 2.76 5.8 1.46 5.8 1.42 2.47 1.42 2.47"/><polygon class="cls-6" points="5.33 2.5 4.01 2.82 4.02 5.8 5.33 5.8 5.33 2.5 5.33 2.5"/><polygon class="cls-7" points="1.52 5.83 5.21 5.82 3.77 7.5 2.99 7.49 1.52 5.83 1.52 5.83"/><path class="cls-2" d="M3.38,8.09l-2-2.31,0-3.33,2,.41,2.05-.41,0,3.37ZM1.49,5.73,3.38,7.9,5.21,5.77l0-3.16L3.34,3,1.5,2.61Z"/><polygon class="cls-3" points="2.95 7.47 3.83 7.47 3.38 8.07 2.95 7.47 2.95 7.47"/><rect class="cls-2" x="1.46" y="5.73" width="3.8" height="0.13"/><path class="cls-8" d="M16,6.38H6.8v0H16Zm0-1.49H6.8v0H16Z"/></g></g></svg>