<svg xmlns="http://www.w3.org/2000/svg" viewBox="0 0 256 129.51"><defs><style>.cls-1{fill:#dd3226;}.cls-2,.cls-3,.cls-4{fill:#010101;}.cls-3{stroke:#010101;stroke-miterlimit:2.61;stroke-width:0.69px;}.cls-3,.cls-4,.cls-5,.cls-6,.cls-7,.cls-8{fill-rule:evenodd;}.cls-5{fill:#fff;}.cls-6{fill:#ef4723;}.cls-7{fill:#fcee23;}.cls-8{fill:#fed8aa;}.cls-9{fill:#231f20;}</style></defs><title>256</title><g id="Layer_2" data-name="Layer 2"><g id="Layer_1-2" data-name="Layer 1"><path class="cls-1" d="M120.39,19.51H125a9.11,9.11,0,0,1,2.4.24,4.3,4.3,0,0,1,1.9,1.16,5.62,5.62,0,0,1,1.21,2,9.51,9.51,0,0,1,.41,3,8.23,8.23,0,0,1-.39,2.68,5.45,5.45,0,0,1-1.35,2.23,4.46,4.46,0,0,1-1.79,1,7.58,7.58,0,0,1-2.25.27h-4.79V19.51Zm2.54,2.13V30h1.9a6.94,6.94,0,0,0,1.54-.12,2.35,2.35,0,0,0,1-.53,2.54,2.54,0,0,0,.67-1.22,8.25,8.25,0,0,0,.26-2.31,7.57,7.57,0,0,0-.26-2.24,3,3,0,0,0-.72-1.22,2.36,2.36,0,0,0-1.18-.59,10.52,10.52,0,0,0-2.09-.13Zm12,4.13-2.2-.39a3.36,3.36,0,0,1,1.28-2,4.59,4.59,0,0,1,2.68-.64,5.89,5.89,0,0,1,2.41.38,2.39,2.39,0,0,1,1.11,1,4.94,4.94,0,0,1,.33,2.17l0,2.82a9.54,9.54,0,0,0,.12,1.78,4.84,4.84,0,0,0,.43,1.22h-2.39c-.06-.16-.14-.4-.23-.71a2.74,2.74,0,0,0-.09-.29A4.17,4.17,0,0,1,137,32a3.8,3.8,0,0,1-1.51.3,3.11,3.11,0,0,1-2.22-.77,2.51,2.51,0,0,1-.82-1.93,2.64,2.64,0,0,1,.37-1.38,2.4,2.4,0,0,1,1-.93,8.29,8.29,0,0,1,1.92-.57,13.25,13.25,0,0,0,2.35-.59v-.24a1.26,1.26,0,0,0-.34-1,2.12,2.12,0,0,0-1.3-.29,1.73,1.73,0,0,0-1,.25,1.79,1.79,0,0,0-.58.89Zm3.23,2a12.64,12.64,0,0,1-1.47.37,5,5,0,0,0-1.32.42,1,1,0,0,0-.47.86,1.17,1.17,0,0,0,.38.87,1.3,1.3,0,0,0,1,.37,2.13,2.13,0,0,0,1.25-.42,1.54,1.54,0,0,0,.58-.81,4.94,4.94,0,0,0,.09-1.17v-.49Zm7.07,4.39H142.8V23H145v1.29a4,4,0,0,1,1-1.21,1.94,1.94,0,0,1,1-.29,3,3,0,0,1,1.59.46l-.74,2.1a2.16,2.16,0,0,0-1.14-.39,1.33,1.33,0,0,0-.86.28,1.81,1.81,0,0,0-.55,1,13.79,13.79,0,0,0-.21,3.06v2.82Zm3.7-2.61,2.42-.37a1.78,1.78,0,0,0,.63,1.08,2.12,2.12,0,0,0,1.32.36,2.36,2.36,0,0,0,1.41-.34.76.76,0,0,0,.32-.65.64.64,0,0,0-.17-.45,1.88,1.88,0,0,0-.81-.32,13,13,0,0,1-3.71-1.18,2.36,2.36,0,0,1-1.08-2.06,2.51,2.51,0,0,1,.94-2,4.35,4.35,0,0,1,2.9-.81,5.06,5.06,0,0,1,2.79.61,3.13,3.13,0,0,1,1.26,1.81l-2.28.42a1.39,1.39,0,0,0-.56-.82,2,2,0,0,0-1.16-.28,2.63,2.63,0,0,0-1.37.26.58.58,0,0,0-.27.49.53.53,0,0,0,.24.44,8.85,8.85,0,0,0,2.25.68,6.6,6.6,0,0,1,2.7,1.08,2.22,2.22,0,0,1,.76,1.79,2.79,2.79,0,0,1-1.05,2.17,4.67,4.67,0,0,1-3.11.9,5.11,5.11,0,0,1-2.95-.76,3.43,3.43,0,0,1-1.42-2.06Zm13.05-10v4.64a3.57,3.57,0,0,1,2.8-1.37,3.44,3.44,0,0,1,1.5.31,2.43,2.43,0,0,1,1,.79,2.78,2.78,0,0,1,.47,1.07,9.84,9.84,0,0,1,.12,1.81v5.36h-2.41V27.29a7.21,7.21,0,0,0-.14-1.82,1.18,1.18,0,0,0-.49-.61,1.49,1.49,0,0,0-.87-.23,2,2,0,0,0-1.07.29,1.72,1.72,0,0,0-.7.88,5.49,5.49,0,0,0-.22,1.74v4.58h-2.41V19.51Zm16.67,12.61h-2.42V27.46a6.88,6.88,0,0,0-.16-1.92,1.36,1.36,0,0,0-.5-.67,1.43,1.43,0,0,0-.84-.24,2,2,0,0,0-1.13.34,1.75,1.75,0,0,0-.68.91,8.11,8.11,0,0,0-.18,2.1v4.14H170.3V23h2.24v1.34A3.75,3.75,0,0,1,177,23.07a2.43,2.43,0,0,1,1,.73,2.8,2.8,0,0,1,.47,1,7.39,7.39,0,0,1,.14,1.62v5.68Zm4.25-6.35-2.19-.39a3.4,3.4,0,0,1,1.27-2,4.65,4.65,0,0,1,2.69-.64,5.89,5.89,0,0,1,2.41.38,2.44,2.44,0,0,1,1.11,1,5.13,5.13,0,0,1,.32,2.17l0,2.82a9.74,9.74,0,0,0,.11,1.78,5.33,5.33,0,0,0,.44,1.22h-2.39a6.3,6.3,0,0,1-.24-.71,1.67,1.67,0,0,0-.08-.29A4.33,4.33,0,0,1,185,32a3.79,3.79,0,0,1-1.5.3,3.13,3.13,0,0,1-2.23-.77,2.73,2.73,0,0,1-.44-3.31,2.35,2.35,0,0,1,1-.93,8.14,8.14,0,0,1,1.92-.57,13.5,13.5,0,0,0,2.35-.59v-.24a1.26,1.26,0,0,0-.35-1,2.11,2.11,0,0,0-1.29-.29,1.71,1.71,0,0,0-1,.25,1.8,1.8,0,0,0-.59.89Zm3.24,2a12.64,12.64,0,0,1-1.47.37,5,5,0,0,0-1.32.42,1,1,0,0,0-.47.86,1.13,1.13,0,0,0,.38.87,1.3,1.3,0,0,0,1,.37,2.13,2.13,0,0,0,1.25-.42,1.52,1.52,0,0,0,.57-.81,4.32,4.32,0,0,0,.1-1.17v-.49Zm6.56-2-2.19-.39a3.4,3.4,0,0,1,1.27-2,4.63,4.63,0,0,1,2.68-.64,5.91,5.91,0,0,1,2.42.38,2.5,2.5,0,0,1,1.11,1,5.13,5.13,0,0,1,.32,2.17l0,2.82a9.54,9.54,0,0,0,.12,1.78,5.33,5.33,0,0,0,.44,1.22h-2.4c-.06-.16-.14-.4-.23-.71,0-.15-.07-.24-.08-.29a4.33,4.33,0,0,1-1.33.91,3.79,3.79,0,0,1-1.5.3,3.13,3.13,0,0,1-2.23-.77,2.73,2.73,0,0,1-.44-3.31,2.35,2.35,0,0,1,1-.93,8.14,8.14,0,0,1,1.92-.57,13.5,13.5,0,0,0,2.35-.59v-.24a1.26,1.26,0,0,0-.35-1,2.12,2.12,0,0,0-1.3-.29,1.7,1.7,0,0,0-1,.25,1.8,1.8,0,0,0-.59.89Zm3.24,2a12.39,12.39,0,0,1-1.48.37,5.06,5.06,0,0,0-1.31.42,1,1,0,0,0-.47.86,1.13,1.13,0,0,0,.38.87,1.3,1.3,0,0,0,1,.37,2.13,2.13,0,0,0,1.25-.42,1.52,1.52,0,0,0,.57-.81,4.32,4.32,0,0,0,.1-1.17v-.49Zm9.15-1.84a7.91,7.91,0,0,1,.58-3.23,5.75,5.75,0,0,1,1.17-1.73,5,5,0,0,1,1.63-1.14,7,7,0,0,1,2.72-.49A5.9,5.9,0,0,1,215.63,21a6.58,6.58,0,0,1,1.67,4.8,6.59,6.59,0,0,1-1.66,4.78,5.88,5.88,0,0,1-4.43,1.73,6,6,0,0,1-4.48-1.72,6.5,6.5,0,0,1-1.66-4.73Zm2.62-.08a4.73,4.73,0,0,0,1,3.25,3.25,3.25,0,0,0,2.52,1.1,3.16,3.16,0,0,0,2.49-1.1,4.81,4.81,0,0,0,1-3.29,4.76,4.76,0,0,0-.95-3.23,3.51,3.51,0,0,0-5.06,0,4.79,4.79,0,0,0-1,3.26Zm13.39,0-2.19-.39a3.35,3.35,0,0,1,1.27-2,4.61,4.61,0,0,1,2.68-.64,5.89,5.89,0,0,1,2.41.38,2.47,2.47,0,0,1,1.12,1,5.13,5.13,0,0,1,.32,2.17l0,2.82a9.54,9.54,0,0,0,.12,1.78,5.27,5.27,0,0,0,.43,1.22h-2.39c-.06-.16-.14-.4-.23-.71a2.74,2.74,0,0,0-.09-.29,4.17,4.17,0,0,1-1.32.91,3.8,3.8,0,0,1-1.51.3,3.11,3.11,0,0,1-2.22-.77,2.73,2.73,0,0,1-.44-3.31,2.33,2.33,0,0,1,1-.93,8.4,8.4,0,0,1,1.93-.57,13.32,13.32,0,0,0,2.34-.59v-.24a1.26,1.26,0,0,0-.34-1,2.12,2.12,0,0,0-1.3-.29,1.73,1.73,0,0,0-1,.25,1.79,1.79,0,0,0-.58.89Zm3.23,2a12.64,12.64,0,0,1-1.47.37,4.79,4.79,0,0,0-1.31.42,1,1,0,0,0-.48.86,1.17,1.17,0,0,0,.38.87,1.3,1.3,0,0,0,1,.37,2.11,2.11,0,0,0,1.24-.42,1.49,1.49,0,0,0,.58-.81,4.94,4.94,0,0,0,.09-1.17v-.49ZM229,32.12V19.51h2.42V26.2L234.23,23h3l-3.12,3.33,3.34,5.8h-2.6l-2.3-4.1L231.4,29.2v2.92Zm9.83-12.57h2.42v1.72a6.06,6.06,0,0,1-.18,1.66,2.47,2.47,0,0,1-.69,1.09,3.45,3.45,0,0,1-1.27.75l-.48-1a2.06,2.06,0,0,0,1-.66A2,2,0,0,0,240,22h-1.17V19.55Zm3.45,10,2.42-.37a1.89,1.89,0,0,0,.63,1.08,2.17,2.17,0,0,0,1.33.36,2.41,2.41,0,0,0,1.41-.34.78.78,0,0,0,.32-.65.61.61,0,0,0-.18-.45,1.88,1.88,0,0,0-.8-.32,12.88,12.88,0,0,1-3.71-1.18,2.36,2.36,0,0,1-1.09-2.06,2.54,2.54,0,0,1,.94-2,4.4,4.4,0,0,1,2.91-.81,5.06,5.06,0,0,1,2.79.61,3.12,3.12,0,0,1,1.25,1.81l-2.28.42a1.38,1.38,0,0,0-.55-.82,2,2,0,0,0-1.17-.28,2.63,2.63,0,0,0-1.37.26.58.58,0,0,0-.27.49.53.53,0,0,0,.24.44,9,9,0,0,0,2.26.68A6.54,6.54,0,0,1,250,27.47a2.22,2.22,0,0,1,.76,1.79,2.79,2.79,0,0,1-1,2.17,4.64,4.64,0,0,1-3.1.9,5.15,5.15,0,0,1-3-.76,3.47,3.47,0,0,1-1.42-2.06Z"/><path class="cls-2" d="M132.74,48.26l-.32-.1a4.82,4.82,0,0,0-1.82-3.44,6.85,6.85,0,0,0-4.26-1.17c-3.16,0-5.76,1.52-7.83,4.58s-3.1,7-3.1,11.73q0,4.91,2.16,7.5a7.57,7.57,0,0,0,6.2,2.62,14.18,14.18,0,0,0,2.42-.23A25.88,25.88,0,0,0,129,69c.24-1.48.45-2.92.61-4.34s.3-2.83.41-4.23l-3.76-.69.32-1,1.6.12c2.08.16,3.49.25,4.25.25s1.42,0,2.36-.09,2.13-.15,3.58-.28l-.33,1-3.25.69c-.26,1.35-.47,2.68-.63,4s-.28,2.63-.36,3.94a43.83,43.83,0,0,1-7.2,3.06,20.68,20.68,0,0,1-6,1c-3.3,0-5.86-.95-7.65-2.86s-2.69-4.6-2.69-8.1a21.06,21.06,0,0,1,1.49-7.72,19.83,19.83,0,0,1,4.15-6.57,18.1,18.1,0,0,1,5.92-4.09,17.41,17.41,0,0,1,7-1.48,13.2,13.2,0,0,1,5.2.82c1.24.54,1.87,1.28,1.87,2.23,0,.78-1,2-3.07,3.52l-.07,0Zm12.43,12.59c-.17.85-.3,1.65-.39,2.39a17,17,0,0,0-.14,2,4.71,4.71,0,0,0,.65,2.72,2.14,2.14,0,0,0,1.88.94A4.74,4.74,0,0,0,149.7,68a16.52,16.52,0,0,0,3-2.79l.8.77a21.37,21.37,0,0,1-5.09,4.75,9.15,9.15,0,0,1-4.8,1.81,3.35,3.35,0,0,1-2.77-1.18,5.27,5.27,0,0,1-1-3.39A22.33,22.33,0,0,1,141,61.15a17.6,17.6,0,0,1,2.82-5.68A15.24,15.24,0,0,1,148,51.85a8.64,8.64,0,0,1,4.24-1.51,3,3,0,0,1,2.17.75,2.81,2.81,0,0,1,.78,2.1c0,1.56-1,3.08-2.89,4.6a16,16,0,0,1-7.14,3.06Zm.24-1.27a5.57,5.57,0,0,0,3.86-1.37,4.44,4.44,0,0,0,1.52-3.44,2.3,2.3,0,0,0-.38-1.43,1.31,1.31,0,0,0-1.1-.47c-.84,0-1.6.58-2.27,1.72a16.23,16.23,0,0,0-1.63,5Zm26-2.94a3.24,3.24,0,0,0-.75-1.07,1.35,1.35,0,0,0-.87-.33q-1.83,0-4.13,4.53a35.56,35.56,0,0,0-3.25,11c-.64.23-1.47.55-2.5,1l-2.05.83c.78-3.77,1.42-7.25,1.89-10.44a55.24,55.24,0,0,0,.71-6.37,1.84,1.84,0,0,0-.18-.9.57.57,0,0,0-.52-.32,2,2,0,0,0-.94.5,16.58,16.58,0,0,0-1.45,1.36l-.7-.64a29.09,29.09,0,0,1,4.22-3.93,5.68,5.68,0,0,1,3.05-1.33,1.09,1.09,0,0,1,1,.46,2.66,2.66,0,0,1,.3,1.44,24.71,24.71,0,0,1-.34,3.17c-.22,1.53-.52,3.22-.89,5.08l.09,0a40.7,40.7,0,0,1,4.75-7.47c1.52-1.81,2.8-2.72,3.81-2.72a1.49,1.49,0,0,1,1.24.62,2.69,2.69,0,0,1,.46,1.63,3.14,3.14,0,0,1-.74,1.87,10.47,10.47,0,0,1-2.19,2ZM188,72.55q1.22-5.52,1.93-10.22a51.67,51.67,0,0,0,.72-6.33,3.47,3.47,0,0,0-.15-1.25.56.56,0,0,0-.55-.32c-.45,0-1.13.46-2.06,1.38A22,22,0,0,0,185,59.37a22.44,22.44,0,0,0-2.7,5.2,28.78,28.78,0,0,0-1.37,6c-.76.3-1.88.77-3.33,1.42l-1.21.51q1.19-5.64,1.9-10.42a53.83,53.83,0,0,0,.72-6.38,1.81,1.81,0,0,0-.2-.95.58.58,0,0,0-.52-.35,1.76,1.76,0,0,0-.89.51,17,17,0,0,0-1.49,1.44l-.7-.65a30.19,30.19,0,0,1,4.27-4,5.54,5.54,0,0,1,3-1.32,1.07,1.07,0,0,1,1,.49,2.79,2.79,0,0,1,.32,1.5,25.94,25.94,0,0,1-.32,3.07c-.21,1.47-.52,3.26-.91,5.36a46.1,46.1,0,0,1,6.5-7.57c2.12-1.9,3.75-2.85,4.91-2.85a1.05,1.05,0,0,1,1,.49,2.79,2.79,0,0,1,.32,1.5,18.92,18.92,0,0,1-.21,2.34c-.14,1-.47,3.11-1,6.23a43.29,43.29,0,0,1,6.45-7.67c2.13-1.92,3.81-2.89,5-2.89a1.4,1.4,0,0,1,1.14.42A2.2,2.2,0,0,1,207,52.2c0,.36-.27,2.12-.83,5.29l-.3,1.75c-.37,2.11-.65,3.82-.82,5.11a23.13,23.13,0,0,0-.27,2.82,1.51,1.51,0,0,0,.13.7.36.36,0,0,0,.34.25,1.57,1.57,0,0,0,.88-.38,8.57,8.57,0,0,0,1.25-1.22l.72.61A24.87,24.87,0,0,1,204.48,71a4.62,4.62,0,0,1-2.75,1.27,1.32,1.32,0,0,1-1.17-.57,3.32,3.32,0,0,1-.38-1.8,42.4,42.4,0,0,1,1-7.54,44,44,0,0,0,1-6.87,1.37,1.37,0,0,0-.18-.8.63.63,0,0,0-.54-.24c-.45,0-1.1.42-1.93,1.25a27.55,27.55,0,0,0-2.79,3.41,23.82,23.82,0,0,0-2.8,5.35,26.71,26.71,0,0,0-1.42,6.21c-.43.17-1.16.48-2.19.92s-1.82.77-2.36,1Zm37.81-19.17c-.5,0-1.12,0-1.86-.08s-1.24-.1-1.51-.1a4.73,4.73,0,0,0-2.78.75,5.71,5.71,0,0,0-1.83,2.43,27.72,27.72,0,0,0-1.6,5.27,26.23,26.23,0,0,0-.68,5.52,2.6,2.6,0,0,0,.22,1.22.7.7,0,0,0,.64.41q1.74,0,5-4.72a29.16,29.16,0,0,0,4.44-10.7ZM224.18,62a36.89,36.89,0,0,1-6.27,7.41q-3.25,2.85-5.1,2.85a1.37,1.37,0,0,1-1.27-.8,5.13,5.13,0,0,1-.43-2.38q0-8.45,4.49-13.52a15.18,15.18,0,0,1,12-5.07h3.13a85.57,85.57,0,0,0-2.16,9.34,43.87,43.87,0,0,0-.79,7,2.52,2.52,0,0,0,.15,1,.5.5,0,0,0,.47.32.92.92,0,0,0,.58-.27,14.32,14.32,0,0,0,1.24-1.23l.76.65A22.83,22.83,0,0,1,227.26,71a5.35,5.35,0,0,1-2.8,1.33,1.23,1.23,0,0,1-1.09-.56,2.92,2.92,0,0,1-.38-1.62,23.63,23.63,0,0,1,.28-3q.28-1.93.91-5.12ZM235,72.55c.78-3.78,1.41-7.25,1.89-10.45a54.32,54.32,0,0,0,.7-6.38,1.83,1.83,0,0,0-.17-.89.56.56,0,0,0-.52-.31A1.94,1.94,0,0,0,236,55a15.44,15.44,0,0,0-1.45,1.37l-.69-.66a31.21,31.21,0,0,1,4.26-4,5.53,5.53,0,0,1,3-1.32,1.08,1.08,0,0,1,1,.49,2.8,2.8,0,0,1,.31,1.5,26.78,26.78,0,0,1-.34,3.3q-.34,2.37-1,5.54a44.5,44.5,0,0,1,7-7.76c2.41-2.05,4.19-3.07,5.31-3.07a1.39,1.39,0,0,1,1,.35,1.46,1.46,0,0,1,.33,1A44,44,0,0,1,253.61,59a44,44,0,0,0-1.12,8.16,1.5,1.5,0,0,0,.14.7.4.4,0,0,0,.34.25,1.56,1.56,0,0,0,.9-.38,8.11,8.11,0,0,0,1.24-1.22l.72.61A25.37,25.37,0,0,1,252.2,71a4.62,4.62,0,0,1-2.75,1.27,1.31,1.31,0,0,1-1.17-.57,3.24,3.24,0,0,1-.38-1.8,42.58,42.58,0,0,1,1-7.51,43,43,0,0,0,1-7.09,1.26,1.26,0,0,0-.17-.69.51.51,0,0,0-.46-.26c-.48,0-1.19.45-2.14,1.33a27.41,27.41,0,0,0-3.12,3.62,22.76,22.76,0,0,0-3,5.33,24.15,24.15,0,0,0-1.4,6c-.66.23-1.36.49-2.07.79S236,72.1,235,72.55Z"/><path class="cls-2" d="M118.45,85.49c-.6,1.07-1.17,2.11-1.71,3.11s-1,2-1.48,2.91h4.5c-.15-.8-.32-1.67-.53-2.6s-.46-2.07-.78-3.42Zm1.79-2.37a59.88,59.88,0,0,0,1,6c.48,2.32,1.1,4.8,1.83,7.45l1.75.35-.16.45-1.31-.08-1.55,0-1.45,0-1.55.08L119,97l1.65-.34c0-.52-.13-1.12-.24-1.83s-.26-1.58-.45-2.61h-5c-.51,1-.92,1.9-1.22,2.6a13.82,13.82,0,0,0-.67,1.83l1.77.35-.16.45-1.15-.08-1.34,0-1.5,0-1.17.08.14-.45,1.62-.35q3.26-5.25,5.15-8.7t1.88-4.15a.13.13,0,0,0,0-.06s0,0,0,0l2-.54Zm11.65.44.82,0c1.1.08,1.84.12,2.24.12s1.22,0,2.38-.13l.67,0-.15.45-1.79.36c-.2.93-.39,1.87-.56,2.82s-.32,1.92-.47,2.91a41.14,41.14,0,0,0,3.68-3,20,20,0,0,0,2.51-2.72L139.78,84l.19-.45,1.29.12c.43,0,.85,0,1.25,0s.7,0,1.11,0l1.45-.12-.18.45-1.4.36c-.93.64-1.88,1.33-2.82,2.07s-1.95,1.6-3,2.55a40.34,40.34,0,0,0,3.77,6.19A4.2,4.2,0,0,0,144.15,97l-.2.45h-1.79a5.23,5.23,0,0,1-1.2-.1,1.86,1.86,0,0,1-.74-.38,9.57,9.57,0,0,1-1.6-2.07q-1-1.62-2.65-4.6l-1.09.81c-.15,1.1-.26,2.1-.35,3s-.16,1.75-.2,2.54l1.88.35-.17.45-1.39-.08-1.67,0-1.66,0-1.39.08.15-.45,1.79-.35c.48-2.4.87-4.62,1.15-6.65s.48-3.89.57-5.58L131.71,84l.18-.45Zm25.41,1.93c-.6,1.07-1.17,2.11-1.7,3.11s-1,2-1.48,2.91h4.49c-.15-.8-.32-1.67-.53-2.6s-.46-2.07-.78-3.42Zm1.79-2.37a59.88,59.88,0,0,0,1,6q.74,3.48,1.83,7.45l1.75.35-.16.45-1.3-.08-1.55,0-1.46,0-1.55.08.17-.45,1.65-.34c0-.52-.13-1.12-.24-1.83s-.26-1.58-.45-2.61h-4.95c-.52,1-.93,1.9-1.23,2.6a15.42,15.42,0,0,0-.67,1.83l1.77.35-.16.45-1.15-.08-1.34,0-1.5,0-1.17.08.14-.45,1.62-.35q3.25-5.25,5.15-8.7t1.88-4.15a.13.13,0,0,0,0-.06l0,0,2-.54Zm9.69,14.28.15-.45,1.79-.35c.48-2.4.87-4.62,1.15-6.65s.48-3.89.58-5.58L170.56,84l.18-.45c.63,0,1.22.08,1.76.11l1.43,0c.48,0,1.24,0,2.29-.11s1.84-.12,2.39-.12a5.14,5.14,0,0,1,3.78,1.24,5.07,5.07,0,0,1,1.24,3.76,9.83,9.83,0,0,1-.73,3.78,8.63,8.63,0,0,1-2.08,3,7.11,7.11,0,0,1-2.69,1.62,12.05,12.05,0,0,1-3.75.49c-.2,0-.63,0-1.29-.05s-1.21,0-1.65,0l-1,0-1.66.08Zm4.4-1c.36.07.74.13,1.13.18a11.81,11.81,0,0,0,1.21.06,5.17,5.17,0,0,0,4.34-1.84q1.42-1.85,1.42-5.61a5.76,5.76,0,0,0-1.05-3.72,3.73,3.73,0,0,0-3-1.27,9,9,0,0,0-1,.06c-.36,0-.79.11-1.29.2-.43,1.84-.78,3.75-1.07,5.76s-.51,4.06-.66,6.18Zm17.91-12.85c.78.06,1.53.1,2.27.12s1.58,0,2.51,0,1.92,0,2.93-.09l1.67-.08a.35.35,0,0,1,.29.1.66.66,0,0,1,.08.36.92.92,0,0,1,0,.2.64.64,0,0,1,0,.09l-.46,1.93-.46.11,0-.59v-.3c0-.28-.26-.48-.78-.61a28.54,28.54,0,0,0-3.89-.38c-.17.73-.34,1.55-.5,2.45s-.32,1.87-.46,2.92c.65,0,1.3,0,1.95,0s1.32-.08,2-.14l.5-1.15.55-.2a19.05,19.05,0,0,0-.49,1.91c-.14.65-.24,1.32-.32,2l-.48.29,0-1.69c-.51-.06-1.09-.13-1.73-.18s-1.34-.08-2.11-.1c-.17,1.19-.3,2.27-.4,3.24s-.16,1.86-.19,2.67h.83a18.14,18.14,0,0,0,3.86-.3,2.19,2.19,0,0,0,1.59-1l.33-.63.48-.13L200,96.73a1.1,1.1,0,0,1-.27.58,1.3,1.3,0,0,1-.71.12h-.12l-.78,0c-1.74-.07-3.41-.1-5-.1q-1.51,0-2.37,0c-.57,0-1.12,0-1.64.1l.15-.48,1.8-.36q.69-3.33,1.12-6.39t.6-5.81L190.94,84l.15-.43ZM205.56,97.4l.17-.45,1.81-.35c.58-1.52,1.18-3.31,1.78-5.37s1.2-4.36,1.78-6.86L209.19,84l.18-.43q.7.09,1.38.12c.45,0,.89,0,1.33,0h.48c.17,0,.44,0,.8,0,.17,1.4.44,3,.79,4.69s.79,3.61,1.31,5.64l3.8-6.39q.54-.94,1-1.92t.9-2l.73,0,.9,0c.47,0,.95,0,1.42,0s.93-.06,1.4-.12l-.16.43-1.79.36c-.3,1.91-.53,3.84-.69,5.76s-.24,3.85-.24,5.75v.72l1.89.35-.15.45-1.37-.08-1.77,0-1.56,0-1.36.08.15-.45,1.79-.35q.34-2.5.57-5.25t.37-5.79c-.36.53-.72,1.11-1.11,1.73s-.81,1.35-1.29,2.18l-1.18,2c-.73,1.27-1.26,2.24-1.57,2.91a10.78,10.78,0,0,0-.68,1.83l-1.48.88a49.63,49.63,0,0,0-1.06-5.34q-.9-3.85-1.3-6.27c-.59,2-1.07,3.92-1.46,5.78s-.66,3.62-.85,5.32l1.81.35-.18.45-1.36-.08-1.3,0-1.51,0-1.23.08Zm24.8,0,.15-.45,1.79-.35q.69-3.37,1.13-6.44c.29-2,.49-4,.6-5.79L232.17,84l.15-.45,1.77.12c.5,0,.94,0,1.31,0s1.12,0,2.18-.12l.85,0-.15.45-1.79.36q-.7,3.39-1.13,6.47c-.29,2.06-.48,4-.57,5.76l1.85.35-.17.45-1.37-.08-1.69,0-1.67,0-1.38.08Zm14.53-13.82c.77.06,1.53.1,2.27.12s1.57,0,2.5,0,1.92,0,2.94-.09l1.66-.08a.34.34,0,0,1,.29.1.58.58,0,0,1,.09.36s0,.1,0,.2a.46.46,0,0,1,0,.09l-.45,1.93-.46.11,0-.59v-.3c0-.28-.26-.48-.77-.61a29,29,0,0,0-3.9-.38c-.17.73-.34,1.55-.5,2.45s-.32,1.87-.46,2.92c.65,0,1.3,0,2,0s1.32-.08,2-.14l.5-1.15.54-.2c-.19.62-.35,1.25-.49,1.91s-.24,1.32-.32,2l-.48.29,0-1.69c-.51-.06-1.08-.13-1.72-.18s-1.35-.08-2.11-.1c-.17,1.19-.31,2.27-.41,3.24s-.16,1.86-.19,2.67h.83a18.14,18.14,0,0,0,3.86-.3,2.23,2.23,0,0,0,1.6-1l.33-.63.48-.13-.66,2.29a1.28,1.28,0,0,1-.27.58,1.33,1.33,0,0,1-.71.12h-.13l-.78,0c-1.74-.07-3.4-.1-5-.1q-1.52,0-2.37,0c-.57,0-1.11,0-1.63.1l.15-.48,1.79-.36c.46-2.22.84-4.35,1.12-6.39s.49-4,.6-5.81L244.74,84l.15-.43Z"/><polygon class="cls-3" points="23.29 19.77 22.78 36.91 53.76 43.15 85.89 37.05 86.09 14.54 23.29 19.77 23.29 19.77"/><polygon class="cls-4" points="0 13.04 54.76 0 106.06 13.29 56.62 29.41 0 13.04 0 13.04"/><polygon class="cls-5" points="13.57 14.53 60.76 3.39 56.36 2.31 9.96 13.42 13.57 14.53 13.57 14.53"/><polygon class="cls-4" points="12.9 16.2 15.36 16.2 15.36 63.77 12.9 63.77 12.9 16.2 12.9 16.2"/><path class="cls-4" d="M14.13,62.23a3.32,3.32,0,1,1-3.2,3.32,3.26,3.26,0,0,1,3.2-3.32Z"/><polygon class="cls-6" points="64.37 92.75 44.13 92.75 44.13 44.75 53.69 47.07 64.2 44.81 64.37 92.75 64.37 92.75"/><polygon class="cls-4" points="22.75 39.55 44.13 44.75 44.13 92.75 23.27 92.75 22.75 39.55 22.75 39.55"/><polygon class="cls-7" points="85.23 39.95 64.18 45.06 64.37 92.75 85.23 92.75 85.23 39.95 85.23 39.95"/><polygon class="cls-8" points="24.28 93.22 83.38 93.16 60.39 119.96 47.88 119.89 24.28 93.22 24.28 93.22"/><path class="cls-2" d="M54,129.51,21.75,92.44,22,39.21,53.4,45.76l32.84-6.57-.8,54ZM23.81,91.67,54,126.38l29.38-34,.75-50.67L53.39,47.86,24.06,41.73Z"/><polygon class="cls-4" points="47.15 119.56 61.34 119.56 54.11 129.06 47.15 119.56 47.15 119.56"/><rect class="cls-2" x="23.38" y="91.73" width="60.83" height="2.04"/><path class="cls-9" d="M256,102H108.76v-.73H256Zm0-23.8H108.76v-.74H256Z"/></g></g></svg>