<svg xmlns="http://www.w3.org/2000/svg" viewBox="0 0 32 16.19"><defs><style>.cls-1{fill:#dd3226;}.cls-2,.cls-3{fill:#010101;}.cls-3,.cls-4,.cls-5,.cls-6,.cls-7{fill-rule:evenodd;}.cls-4{fill:#fff;}.cls-5{fill:#ef4723;}.cls-6{fill:#fcee23;}.cls-7{fill:#fed8aa;}.cls-8{fill:#231f20;}</style></defs><title>32</title><g id="Layer_2" data-name="Layer 2"><g id="Layer_1-2" data-name="Layer 1"><path class="cls-1" d="M15.05,2.44h.58a1.15,1.15,0,0,1,.3,0,.58.58,0,0,1,.24.14.93.93,0,0,1,.15.26,1.27,1.27,0,0,1,.05.37,1.16,1.16,0,0,1-.05.34.66.66,0,0,1-.17.28.57.57,0,0,1-.22.12,1,1,0,0,1-.28,0h-.6V2.44Zm.32.27v1h.23l.2,0a.31.31,0,0,0,.13-.06A.35.35,0,0,0,16,3.52a1.12,1.12,0,0,0,0-.29A1,1,0,0,0,16,3a.35.35,0,0,0-.09-.16.35.35,0,0,0-.15-.07h-.4Zm1.49.51-.27-.05a.38.38,0,0,1,.16-.24.52.52,0,0,1,.33-.08.64.64,0,0,1,.31,0,.26.26,0,0,1,.13.12.58.58,0,0,1,0,.27v.35a1.09,1.09,0,0,0,0,.22.58.58,0,0,0,.05.16h-.3a.46.46,0,0,1,0-.09s0,0,0,0a.51.51,0,0,1-.16.11.43.43,0,0,1-.19,0A.41.41,0,0,1,16.66,4a.37.37,0,0,1-.06-.42.49.49,0,0,1,.13-.12L17,3.34a1.48,1.48,0,0,0,.3-.07v0a.14.14,0,0,0-.05-.12s-.08,0-.16,0a.21.21,0,0,0-.12,0,.24.24,0,0,0-.08.11Zm.41.25-.19,0a.53.53,0,0,0-.16.06.11.11,0,0,0-.06.1.16.16,0,0,0,.05.11.17.17,0,0,0,.12.05.24.24,0,0,0,.15-.06.2.2,0,0,0,.08-.1s0-.07,0-.14V3.47Zm.88.55h-.3V2.87h.28V3a.58.58,0,0,1,.13-.16.28.28,0,0,1,.13,0,.46.46,0,0,1,.2,0l-.09.27a.3.3,0,0,0-.15,0,.17.17,0,0,0-.1,0,.23.23,0,0,0-.07.13,1.51,1.51,0,0,0,0,.38V4Zm.46-.33.31,0a.26.26,0,0,0,.07.14.29.29,0,0,0,.17,0,.3.3,0,0,0,.18,0,.12.12,0,0,0,0-.08.09.09,0,0,0,0-.06.19.19,0,0,0-.1,0,1.81,1.81,0,0,1-.46-.14.32.32,0,0,1,0-.51.55.55,0,0,1,.37-.1.62.62,0,0,1,.34.07.39.39,0,0,1,.16.23l-.28.05a.26.26,0,0,0-.07-.1.33.33,0,0,0-.15,0,.32.32,0,0,0-.17,0,.06.06,0,0,0,0,.06.05.05,0,0,0,0,0,1.06,1.06,0,0,0,.28.09,1,1,0,0,1,.34.13.3.3,0,0,1,.09.23.35.35,0,0,1-.13.27.62.62,0,0,1-.39.11A.65.65,0,0,1,18.79,4a.48.48,0,0,1-.18-.26Zm1.64-1.25V3a.41.41,0,0,1,.34-.17.38.38,0,0,1,.19,0,.25.25,0,0,1,.13.09.42.42,0,0,1,.06.14,1.35,1.35,0,0,1,0,.23V4h-.3V3.41a.62.62,0,0,0,0-.23.13.13,0,0,0-.06-.07.18.18,0,0,0-.11,0,.24.24,0,0,0-.22.15.59.59,0,0,0,0,.21V4h-.31V2.44ZM22.33,4H22V3.43a1.1,1.1,0,0,0,0-.24.27.27,0,0,0-.07-.08.17.17,0,0,0-.1,0,.23.23,0,0,0-.14,0,.27.27,0,0,0-.09.12,1.26,1.26,0,0,0,0,.26V4h-.3V2.87h.28V3a.44.44,0,0,1,.37-.19.58.58,0,0,1,.19,0,.4.4,0,0,1,.12.1.27.27,0,0,1,.06.12,1.06,1.06,0,0,1,0,.21V4Zm.53-.8-.27-.05a.38.38,0,0,1,.16-.24.5.5,0,0,1,.33-.08.58.58,0,0,1,.3,0,.28.28,0,0,1,.14.12.58.58,0,0,1,0,.27v.35a1.28,1.28,0,0,0,0,.22.64.64,0,0,0,.06.16h-.3a.46.46,0,0,1,0-.09.08.08,0,0,1,0,0,.45.45,0,0,1-.17.11.41.41,0,0,1-.19,0A.38.38,0,0,1,22.66,4a.37.37,0,0,1-.06-.42.37.37,0,0,1,.13-.12L23,3.34a1.34,1.34,0,0,0,.29-.07v0c0-.06,0-.1,0-.12a.22.22,0,0,0-.16,0,.25.25,0,0,0-.13,0,.23.23,0,0,0-.07.11Zm.4.25-.18,0a.44.44,0,0,0-.16.06.11.11,0,0,0-.06.1.15.15,0,0,0,0,.11.21.21,0,0,0,.12.05.25.25,0,0,0,.16-.06.14.14,0,0,0,.07-.1.45.45,0,0,0,0-.14V3.47Zm.83-.25-.28-.05A.38.38,0,0,1,24,2.93a.55.55,0,0,1,.34-.08.62.62,0,0,1,.3,0,.33.33,0,0,1,.14.12.76.76,0,0,1,0,.27v.35a1.09,1.09,0,0,0,0,.22,1.42,1.42,0,0,0,.05.16h-.3a.23.23,0,0,0,0-.09s0,0,0,0a.42.42,0,0,1-.16.11.48.48,0,0,1-.47,0,.33.33,0,0,1-.1-.25.34.34,0,0,1,0-.17A.3.3,0,0,1,24,3.41a1.21,1.21,0,0,1,.24-.07,1.34,1.34,0,0,0,.29-.07v0c0-.06,0-.1,0-.12a.25.25,0,0,0-.17,0,.21.21,0,0,0-.12,0,.18.18,0,0,0-.07.11Zm.4.25-.18,0a.52.52,0,0,0-.17.06.11.11,0,0,0-.06.1.16.16,0,0,0,.05.11.17.17,0,0,0,.12.05.27.27,0,0,0,.16-.06.18.18,0,0,0,.07-.1.45.45,0,0,0,0-.14V3.47Zm1.14-.23a1,1,0,0,1,.08-.41.6.6,0,0,1,.14-.21.62.62,0,0,1,.21-.15.86.86,0,0,1,.34-.06.71.71,0,0,1,.55.22.81.81,0,0,1,.21.6.89.89,0,0,1-.2.6.85.85,0,0,1-1.12,0,.82.82,0,0,1-.21-.59Zm.33,0a.55.55,0,0,0,.13.4.41.41,0,0,0,.62,0,.61.61,0,0,0,.12-.41.64.64,0,0,0-.11-.4.44.44,0,0,0-.64,0,.59.59,0,0,0-.12.41Zm1.67,0-.27-.05a.38.38,0,0,1,.16-.24.55.55,0,0,1,.34-.08.62.62,0,0,1,.3,0A.33.33,0,0,1,28.3,3a.76.76,0,0,1,0,.27v.35a1.09,1.09,0,0,0,0,.22,1.42,1.42,0,0,0,0,.16h-.3a.46.46,0,0,1,0-.09s0,0,0,0A.42.42,0,0,1,27.9,4a.48.48,0,0,1-.47,0,.33.33,0,0,1-.1-.25.26.26,0,0,1,.05-.17.3.3,0,0,1,.13-.12,1.21,1.21,0,0,1,.24-.07A1.52,1.52,0,0,0,28,3.27v0a.17.17,0,0,0,0-.12.25.25,0,0,0-.17,0,.21.21,0,0,0-.12,0,.24.24,0,0,0-.08.11Zm.41.25-.18,0a.52.52,0,0,0-.17.06.11.11,0,0,0-.06.1.16.16,0,0,0,.05.11.17.17,0,0,0,.12.05A.27.27,0,0,0,28,3.77a.18.18,0,0,0,.07-.1.45.45,0,0,0,0-.14V3.47Zm.58.55V2.44h.31v.84l.35-.41h.37l-.39.42.42.73h-.33l-.28-.52-.14.15V4Zm1.23-1.58h.3v.22a.62.62,0,0,1,0,.21.26.26,0,0,1-.08.13l-.16.1L29.83,3A.32.32,0,0,0,30,2.89a.29.29,0,0,0,0-.14h-.15V2.44Zm.43,1.25.31,0a.21.21,0,0,0,.07.14.29.29,0,0,0,.17,0,.3.3,0,0,0,.18,0,.12.12,0,0,0,0-.08.09.09,0,0,0,0-.06.19.19,0,0,0-.1,0,1.81,1.81,0,0,1-.46-.14.32.32,0,0,1,0-.51.53.53,0,0,1,.36-.1.63.63,0,0,1,.35.07.39.39,0,0,1,.16.23L31,3.2A.26.26,0,0,0,31,3.1a.33.33,0,0,0-.15,0,.32.32,0,0,0-.17,0,.06.06,0,0,0,0,.06s0,0,0,0a1.06,1.06,0,0,0,.28.09.89.89,0,0,1,.33.13.28.28,0,0,1,.1.23.35.35,0,0,1-.13.27.62.62,0,0,1-.39.11A.65.65,0,0,1,30.46,4a.48.48,0,0,1-.18-.26Z"/><path class="cls-2" d="M16.59,6h0a.59.59,0,0,0-.23-.43.82.82,0,0,0-.53-.15,1.15,1.15,0,0,0-1,.58,2.62,2.62,0,0,0-.38,1.46,1.44,1.44,0,0,0,.27.94.93.93,0,0,0,.77.33l.3,0,.36-.09c0-.19.06-.37.08-.54s0-.36.05-.53l-.47-.09,0-.12H16l.53,0h.29l.45,0,0,.12-.41.09a4.29,4.29,0,0,0-.07.5,4.07,4.07,0,0,0-.05.49,5.33,5.33,0,0,1-.9.38,2.37,2.37,0,0,1-.75.13,1.27,1.27,0,0,1-1-.36,1.43,1.43,0,0,1-.33-1,2.73,2.73,0,0,1,.18-1,2.67,2.67,0,0,1,.52-.82,2.23,2.23,0,0,1,.74-.51,2.19,2.19,0,0,1,.87-.18,1.61,1.61,0,0,1,.65.1.3.3,0,0,1,.23.28c0,.09-.12.24-.38.44Zm1.56,1.58c0,.1,0,.2,0,.3a2.32,2.32,0,0,0,0,.24.63.63,0,0,0,.08.34.27.27,0,0,0,.24.12.55.55,0,0,0,.31-.12,1.63,1.63,0,0,0,.38-.34l.1.09a2.54,2.54,0,0,1-.63.6,1.14,1.14,0,0,1-.6.22.44.44,0,0,1-.35-.14.69.69,0,0,1-.12-.43,2.65,2.65,0,0,1,.14-.85A2.24,2.24,0,0,1,18,6.93a2.09,2.09,0,0,1,.52-.45A1.18,1.18,0,0,1,19,6.29a.33.33,0,0,1,.27.1.33.33,0,0,1,.1.26.77.77,0,0,1-.36.57,2.07,2.07,0,0,1-.89.39Zm0-.16a.72.72,0,0,0,.48-.17.59.59,0,0,0,.19-.43.3.3,0,0,0-.05-.18.17.17,0,0,0-.14-.06.35.35,0,0,0-.28.21,2.22,2.22,0,0,0-.2.63Zm3.24-.37A.36.36,0,0,0,21.33,7a.15.15,0,0,0-.11,0c-.15,0-.33.18-.52.56a4.61,4.61,0,0,0-.4,1.37L20,9l-.25.11c.1-.47.17-.91.23-1.31A6.55,6.55,0,0,0,20.05,7s0-.09,0-.11a.06.06,0,0,0-.06,0,.22.22,0,0,0-.12.06.94.94,0,0,0-.18.17L19.58,7a3.21,3.21,0,0,1,.53-.49.69.69,0,0,1,.38-.17.14.14,0,0,1,.12.06.34.34,0,0,1,0,.18,3.36,3.36,0,0,1,0,.39,5.74,5.74,0,0,1-.11.64h0a5.8,5.8,0,0,1,.6-.93c.19-.23.35-.34.48-.34a.19.19,0,0,1,.15.08.32.32,0,0,1,.06.2.38.38,0,0,1-.1.24,1.34,1.34,0,0,1-.27.25Zm2.08,2c.1-.46.18-.89.24-1.28A6.35,6.35,0,0,0,23.83,7a.51.51,0,0,0,0-.16.08.08,0,0,0-.07,0c-.06,0-.14.06-.26.18a2.93,2.93,0,0,0-.35.44,2.7,2.7,0,0,0-.34.65,3.88,3.88,0,0,0-.17.76A4.09,4.09,0,0,0,22.2,9l-.15.07c.1-.47.18-.91.24-1.31A6.77,6.77,0,0,0,22.38,7a.37.37,0,0,0,0-.12s0,0-.07,0a.2.2,0,0,0-.11.07L22,7.05,21.9,7a3.94,3.94,0,0,1,.54-.51.67.67,0,0,1,.37-.16.12.12,0,0,1,.12.06.32.32,0,0,1,0,.19,2.53,2.53,0,0,1,0,.38c0,.19-.06.41-.11.67a5.73,5.73,0,0,1,.81-.94,1.13,1.13,0,0,1,.62-.36.14.14,0,0,1,.12.06.44.44,0,0,1,0,.19,1.8,1.8,0,0,1,0,.29l-.12.78a5.48,5.48,0,0,1,.8-1,1.15,1.15,0,0,1,.63-.36.17.17,0,0,1,.14,0,.28.28,0,0,1,.05.18s0,.26-.11.66l0,.21c0,.27-.08.48-.11.64a3.37,3.37,0,0,0,0,.36.11.11,0,0,0,0,.08s0,0,0,0a.21.21,0,0,0,.11,0l.15-.15.09.07a2.69,2.69,0,0,1-.45.48.55.55,0,0,1-.34.16A.16.16,0,0,1,25.07,9,.42.42,0,0,1,25,8.74a4.91,4.91,0,0,1,.13-1,5.5,5.5,0,0,0,.12-.86.15.15,0,0,0,0-.1.08.08,0,0,0-.07,0c-.05,0-.13.06-.24.16a3.72,3.72,0,0,0-.35.43,2.85,2.85,0,0,0-.35.67,3.48,3.48,0,0,0-.17.77L23.79,9l-.29.12Zm4.72-2.4H27.8a.63.63,0,0,0-.35.09.89.89,0,0,0-.23.31,4.08,4.08,0,0,0-.2.66,3.75,3.75,0,0,0-.08.69.31.31,0,0,0,0,.15.09.09,0,0,0,.08,0c.14,0,.35-.2.62-.59a3.72,3.72,0,0,0,.55-1.34ZM28,7.76a4.89,4.89,0,0,1-.78.92A1.13,1.13,0,0,1,26.6,9a.19.19,0,0,1-.16-.1.78.78,0,0,1-.05-.3A2.48,2.48,0,0,1,27,7a1.89,1.89,0,0,1,1.49-.63h.39a10.77,10.77,0,0,0-.26,1.17,5.09,5.09,0,0,0-.1.88.41.41,0,0,0,0,.12.07.07,0,0,0,.06,0,.13.13,0,0,0,.08,0l.15-.16.1.08a2.49,2.49,0,0,1-.46.46.72.72,0,0,1-.35.17A.17.17,0,0,1,27.92,9a.41.41,0,0,1-.05-.21c0-.08,0-.2,0-.37S28,8,28,7.76Zm1.36,1.31c.1-.47.17-.91.23-1.31A6.65,6.65,0,0,0,29.7,7a.36.36,0,0,0,0-.11.08.08,0,0,0-.07,0,.3.3,0,0,0-.11.07.7.7,0,0,0-.18.17L29.23,7a3.83,3.83,0,0,1,.53-.5.69.69,0,0,1,.38-.16.14.14,0,0,1,.12.06.41.41,0,0,1,0,.19,3.55,3.55,0,0,1-.05.41q0,.3-.12.69a6,6,0,0,1,.88-1,1.35,1.35,0,0,1,.66-.38.15.15,0,0,1,.17.17,5,5,0,0,1-.14.91,5.81,5.81,0,0,0-.14,1,.19.19,0,0,0,0,.08s0,0,0,0a.21.21,0,0,0,.11,0,1.06,1.06,0,0,0,.16-.15l.09.07a2.38,2.38,0,0,1-.46.48.55.55,0,0,1-.34.16A.18.18,0,0,1,31,9a.43.43,0,0,1,0-.22,5.51,5.51,0,0,1,.12-.94,5,5,0,0,0,.13-.89.13.13,0,0,0,0-.09.06.06,0,0,0-.06,0c-.06,0-.15.06-.26.17a3.15,3.15,0,0,0-.39.45,2.46,2.46,0,0,0-.37.67,2.94,2.94,0,0,0-.18.75l-.26.1-.32.14Z"/><path class="cls-2" d="M14.81,10.69l-.22.38c-.06.13-.13.25-.18.37H15c0-.1,0-.21-.07-.33s-.05-.26-.09-.42Zm.22-.3a7.11,7.11,0,0,0,.12.75c.06.29.14.6.23.93l.22,0,0,.06h-.73l0-.06.21,0c0-.07,0-.14,0-.23s0-.2-.06-.33h-.62a2.18,2.18,0,0,0-.15.33c0,.09-.07.16-.09.22l.22,0,0,.06h-.64l0-.06.2,0c.27-.43.48-.79.64-1.08a2,2,0,0,0,.24-.52h0l.25-.07Zm1.46,0h.1l.28,0,.3,0h.08l0,.06-.22.05c0,.11-.05.23-.07.35l-.06.36c.17-.13.33-.25.46-.37a4.18,4.18,0,0,0,.31-.34l-.18-.05,0-.06.16,0H18l.18,0,0,.06-.17.05a4.06,4.06,0,0,0-.36.26c-.11.09-.24.19-.37.31a4.17,4.17,0,0,0,.47.78.54.54,0,0,0,.34.22l0,.06h-.22l-.15,0a.19.19,0,0,1-.09,0,1.11,1.11,0,0,1-.2-.26c-.09-.14-.2-.33-.33-.58l-.14.1c0,.14,0,.26,0,.38s0,.22,0,.31l.24,0,0,.06h-.76l0-.06.22,0c.06-.3.11-.57.15-.83s.06-.48.07-.69l-.24-.05,0-.06Zm3.17.25-.21.38-.19.37h.57c0-.1,0-.21-.07-.33s-.06-.26-.1-.42Zm.23-.3a7.11,7.11,0,0,0,.12.75c.06.29.14.6.23.93l.22,0,0,.06H19.7l0-.06.2,0a1,1,0,0,0,0-.23,3,3,0,0,0-.06-.33h-.61c-.07.13-.12.24-.16.33a2.11,2.11,0,0,0-.08.22l.22,0,0,.06h-.64v-.06l.21,0c.27-.43.48-.79.64-1.08a1.77,1.77,0,0,0,.23-.52h0l.25-.07Zm1.21,1.79,0-.06.22,0c.06-.3.11-.57.14-.83s.06-.48.08-.69l-.24-.05,0-.06.22,0H22l.3,0a.67.67,0,0,1,.47.16.65.65,0,0,1,.15.47,1.23,1.23,0,0,1-.09.47,1,1,0,0,1-.26.38.94.94,0,0,1-.33.2,1.55,1.55,0,0,1-.47.07h-.7Zm.55-.13.14,0h.15a.63.63,0,0,0,.54-.23,1.11,1.11,0,0,0,.18-.7.68.68,0,0,0-.13-.46.46.46,0,0,0-.38-.16H22l-.16,0c-.05.23-.09.47-.13.72s-.06.51-.08.77Zm2.24-1.6h1.17s0,0,0,0a.05.05,0,0,1,0,0v0h0l-.06.24-.05,0v-.12s0-.06-.1-.07a3.62,3.62,0,0,0-.49,0c0,.09,0,.19-.06.31l-.06.36h.25l.25,0,.06-.14.07,0-.06.24a2.17,2.17,0,0,0,0,.25l-.06,0v-.21l-.21,0-.27,0c0,.15,0,.29-.05.41s0,.23,0,.33h.1a1.88,1.88,0,0,0,.48,0,.25.25,0,0,0,.2-.12l0-.08h.06l-.08.28a.15.15,0,0,1,0,.07.14.14,0,0,1-.09,0h-.11l-.63,0h-.5l0-.06.22,0a7.9,7.9,0,0,0,.14-.8,6.34,6.34,0,0,0,.08-.72l-.23-.05,0-.05Zm1.8,1.73,0-.06.22,0a4.79,4.79,0,0,0,.22-.67c.08-.26.15-.54.23-.85l-.24-.05,0-.05h.5a5.2,5.2,0,0,0,.1.59c0,.21.1.45.16.7l.48-.8a2.6,2.6,0,0,0,.13-.24c0-.08.07-.16.11-.25h.55l0,.05-.22.05q-.06.36-.09.72t0,.72v.08l.24,0,0,.06H27.3l0-.06.23,0c0-.2.05-.42.07-.65s0-.47,0-.73c0,.07-.09.14-.13.22l-.17.27-.14.26a3,3,0,0,0-.2.36,1.36,1.36,0,0,0-.09.23l-.18.11c0-.12-.06-.35-.13-.67s-.13-.58-.16-.78c-.08.25-.14.49-.19.72a5.57,5.57,0,0,0-.1.66l.22,0,0,.06h-.68Zm3.11,0v-.06l.23,0c.06-.28.1-.55.14-.8s.06-.5.07-.72L29,10.5l0-.06.22,0h.17l.27,0h.1v.06l-.23.05c-.06.28-.1.55-.14.81a6.3,6.3,0,0,0-.07.71l.23,0,0,.06H28.8Zm1.81-1.73h1.21s0,0,0,0v0h0l-.05.24-.06,0v-.12s0-.06-.09-.07a3.85,3.85,0,0,0-.49,0c0,.09,0,.19-.06.31l-.06.36h.24l.25,0,.07-.14.06,0-.06.24c0,.08,0,.17,0,.25l-.06,0v-.21l-.22,0-.26,0a3.5,3.5,0,0,0-.05.41c0,.12,0,.23,0,.33H31a2,2,0,0,0,.48,0,.27.27,0,0,0,.2-.12l0-.08h.06l-.08.28a.14.14,0,0,1,0,.07.14.14,0,0,1-.09,0h-.11l-.62,0h-.5v-.06l.23,0c.06-.27.1-.54.14-.8a6.25,6.25,0,0,0,.07-.72l-.23-.05,0-.05Z"/><polygon class="cls-3" points="2.91 2.47 2.85 4.61 6.72 5.39 10.74 4.63 10.76 1.82 2.91 2.47 2.91 2.47"/><path class="cls-2" d="M6.72,5.44h0L2.8,4.65l.07-2.22h0l7.9-.66,0,2.9ZM2.89,4.58l3.83.77,4-.75,0-2.74L3,2.51Z"/><polygon class="cls-3" points="0 1.63 6.84 0 13.26 1.66 7.08 3.68 0 1.63 0 1.63"/><polygon class="cls-4" points="1.7 1.82 7.59 0.42 7.04 0.29 1.25 1.68 1.7 1.82 1.7 1.82"/><polygon class="cls-3" points="1.61 2.02 1.92 2.02 1.92 7.97 1.61 7.97 1.61 2.02 1.61 2.02"/><path class="cls-3" d="M1.77,7.78a.4.4,0,0,1,.4.41.41.41,0,0,1-.4.42.41.41,0,0,1-.4-.42.4.4,0,0,1,.4-.41Z"/><polygon class="cls-5" points="8.05 11.59 5.52 11.59 5.52 5.59 6.71 5.88 8.03 5.6 8.05 11.59 8.05 11.59"/><polygon class="cls-3" points="2.84 4.94 5.52 5.59 5.52 11.59 2.91 11.59 2.84 4.94 2.84 4.94"/><polygon class="cls-6" points="10.65 4.99 8.02 5.63 8.05 11.59 10.65 11.59 10.65 4.99 10.65 4.99"/><polygon class="cls-7" points="3.03 11.65 10.42 11.65 7.55 14.99 5.98 14.99 3.03 11.65 3.03 11.65"/><path class="cls-2" d="M6.75,16.19l-4-4.64,0-6.65,3.93.82,4.1-.82-.1,6.74ZM3,11.46,6.75,15.8l3.68-4.25.09-6.34L6.67,6,3,5.22Z"/><polygon class="cls-3" points="5.89 14.95 7.67 14.95 6.76 16.13 5.89 14.95 5.89 14.95"/><rect class="cls-2" x="2.92" y="11.47" width="7.6" height="0.26"/><path class="cls-8" d="M32,12.75H13.59v-.09H32Zm0-3H13.59V9.69H32Z"/></g></g></svg>