<svg xmlns="http://www.w3.org/2000/svg" viewBox="0 0 512 259.03"><defs><style>.cls-1{fill:#dd3226;}.cls-2,.cls-3,.cls-4{fill:#010101;}.cls-3{stroke:#010101;stroke-miterlimit:2.61;stroke-width:0.69px;}.cls-3,.cls-4,.cls-5,.cls-6,.cls-7,.cls-8{fill-rule:evenodd;}.cls-5{fill:#fff;}.cls-6{fill:#ef4723;}.cls-7{fill:#fcee23;}.cls-8{fill:#fed8aa;}.cls-9{fill:#231f20;}</style></defs><title>512</title><g id="Layer_2" data-name="Layer 2"><g id="Layer_1-2" data-name="Layer 1"><path class="cls-1" d="M240.77,39h9.31a18.23,18.23,0,0,1,4.8.48,8.38,8.38,0,0,1,3.8,2.33,10.92,10.92,0,0,1,2.41,4.08,18.64,18.64,0,0,1,.83,6,16.43,16.43,0,0,1-.78,5.36,11,11,0,0,1-2.7,4.45,8.76,8.76,0,0,1-3.58,2,15.23,15.23,0,0,1-4.51.53h-9.58V39Zm5.1,4.27V60h3.8a13.4,13.4,0,0,0,3.08-.24,4.64,4.64,0,0,0,2.05-1,5.41,5.41,0,0,0,1.34-2.44,16.65,16.65,0,0,0,.51-4.62,15.26,15.26,0,0,0-.51-4.49,5.75,5.75,0,0,0-1.45-2.44,4.86,4.86,0,0,0-2.36-1.19,23.12,23.12,0,0,0-4.18-.24Zm23.95,8.26-4.39-.8A6.85,6.85,0,0,1,268,46.83a9.34,9.34,0,0,1,5.37-1.27,11.42,11.42,0,0,1,4.82.77,4.8,4.8,0,0,1,2.23,1.94A10.17,10.17,0,0,1,281,52.6l0,5.64a20.09,20.09,0,0,0,.23,3.55,10.83,10.83,0,0,0,.87,2.45H277.3c-.13-.32-.29-.8-.47-1.42a3.89,3.89,0,0,0-.17-.57A9,9,0,0,1,274,64.06a7.77,7.77,0,0,1-3,.59,6.25,6.25,0,0,1-4.44-1.52,5.09,5.09,0,0,1-1.63-3.88,5.23,5.23,0,0,1,.74-2.76,4.77,4.77,0,0,1,2.07-1.85,16.27,16.27,0,0,1,3.85-1.13,25.71,25.71,0,0,0,4.69-1.19v-.48a2.51,2.51,0,0,0-.69-2,4.13,4.13,0,0,0-2.59-.59,2.89,2.89,0,0,0-3.18,2.29Zm6.46,3.92c-.62.2-1.6.45-2.94.74a9.12,9.12,0,0,0-2.63.84,2,2,0,0,0-.95,1.7,2.37,2.37,0,0,0,.76,1.76,2.64,2.64,0,0,0,1.93.74,4.2,4.2,0,0,0,2.49-.86,3,3,0,0,0,1.15-1.6,9.35,9.35,0,0,0,.19-2.36v-1Zm14.15,8.77H285.6V46h4.48v2.6a7.87,7.87,0,0,1,2.07-2.43,3.92,3.92,0,0,1,2.1-.58,6.11,6.11,0,0,1,3.18.91l-1.5,4.21a4.27,4.27,0,0,0-2.27-.78,2.69,2.69,0,0,0-1.72.55,3.83,3.83,0,0,0-1.11,2,28.87,28.87,0,0,0-.4,6.13v5.64ZM297.81,59l4.85-.74a3.54,3.54,0,0,0,1.26,2.14,4.22,4.22,0,0,0,2.65.74,4.64,4.64,0,0,0,2.81-.7,1.51,1.51,0,0,0,.65-1.28,1.28,1.28,0,0,0-.35-.92,3.79,3.79,0,0,0-1.62-.63q-5.85-1.29-7.41-2.36a4.7,4.7,0,0,1-2.17-4.12,5,5,0,0,1,1.87-4q1.88-1.62,5.82-1.62a10.22,10.22,0,0,1,5.58,1.22,6.2,6.2,0,0,1,2.5,3.62l-4.55.84a2.85,2.85,0,0,0-1.11-1.64,4.09,4.09,0,0,0-2.34-.57,5.18,5.18,0,0,0-2.73.54,1.14,1.14,0,0,0-.55,1,1.06,1.06,0,0,0,.48.87A17.81,17.81,0,0,0,308,52.79a13.22,13.22,0,0,1,5.39,2.15,4.47,4.47,0,0,1,1.52,3.59,5.5,5.5,0,0,1-2.11,4.32c-1.39,1.21-3.46,1.8-6.2,1.8a10.24,10.24,0,0,1-5.92-1.51A7,7,0,0,1,297.81,59Zm26.12-20v9.27a7.25,7.25,0,0,1,8.6-2.11,4.92,4.92,0,0,1,2,1.58,5.86,5.86,0,0,1,.93,2.14,18.69,18.69,0,0,1,.25,3.63V64.24H330.9V54.59a14.4,14.4,0,0,0-.28-3.65,2.46,2.46,0,0,0-1-1.23,3.18,3.18,0,0,0-1.75-.45,4,4,0,0,0-2.15.58,3.31,3.31,0,0,0-1.38,1.77,10.31,10.31,0,0,0-.44,3.48v9.15h-4.84V39Zm33.32,25.22h-4.83V54.92a14.69,14.69,0,0,0-.31-3.83,2.73,2.73,0,0,0-1-1.35,2.89,2.89,0,0,0-1.68-.48,3.9,3.9,0,0,0-2.25.68,3.56,3.56,0,0,0-1.37,1.83,15.66,15.66,0,0,0-.37,4.2v8.27H340.6V46h4.48v2.69A7.51,7.51,0,0,1,354,46.13a4.89,4.89,0,0,1,2,1.48,5.25,5.25,0,0,1,.94,2,14.93,14.93,0,0,1,.27,3.25V64.24Zm8.52-12.69-4.39-.8a6.9,6.9,0,0,1,2.54-3.92,9.34,9.34,0,0,1,5.37-1.27,11.39,11.39,0,0,1,4.82.77,4.8,4.8,0,0,1,2.23,1.94A10,10,0,0,1,377,52.6l-.06,5.64a19,19,0,0,0,.24,3.55,9.93,9.93,0,0,0,.87,2.45h-4.79c-.12-.32-.28-.8-.46-1.42-.08-.29-.14-.48-.17-.57A9,9,0,0,1,370,64.06a7.82,7.82,0,0,1-3,.59,6.26,6.26,0,0,1-4.44-1.52,5.09,5.09,0,0,1-1.63-3.88,5.23,5.23,0,0,1,.74-2.76,4.79,4.79,0,0,1,2.08-1.85,16,16,0,0,1,3.84-1.13,25.48,25.48,0,0,0,4.69-1.19v-.48a2.51,2.51,0,0,0-.68-2,4.16,4.16,0,0,0-2.6-.59,3.43,3.43,0,0,0-2,.51,3.5,3.5,0,0,0-1.17,1.78Zm6.46,3.92c-.61.2-1.59.45-2.94.74a9.24,9.24,0,0,0-2.63.84,2,2,0,0,0-.94,1.7,2.4,2.4,0,0,0,.75,1.76,2.67,2.67,0,0,0,1.93.74,4.25,4.25,0,0,0,2.5-.86,3.07,3.07,0,0,0,1.15-1.6,9.5,9.5,0,0,0,.18-2.36v-1Zm13.14-3.92-4.39-.8a6.85,6.85,0,0,1,2.54-3.92,9.34,9.34,0,0,1,5.37-1.27,11.42,11.42,0,0,1,4.82.77,4.8,4.8,0,0,1,2.23,1.94,10.17,10.17,0,0,1,.64,4.33l-.05,5.64a20.09,20.09,0,0,0,.23,3.55,10.83,10.83,0,0,0,.87,2.45h-4.78c-.13-.32-.28-.8-.47-1.42a3.89,3.89,0,0,0-.17-.57,8.87,8.87,0,0,1-2.65,1.81,7.77,7.77,0,0,1-3,.59,6.25,6.25,0,0,1-4.44-1.52,5.09,5.09,0,0,1-1.63-3.88,5.23,5.23,0,0,1,.74-2.76,4.77,4.77,0,0,1,2.07-1.85,16.27,16.27,0,0,1,3.85-1.13,25.71,25.71,0,0,0,4.69-1.19v-.48a2.51,2.51,0,0,0-.69-2,4.13,4.13,0,0,0-2.59-.59,2.89,2.89,0,0,0-3.18,2.29Zm6.46,3.92c-.62.2-1.6.45-2.94.74a9.12,9.12,0,0,0-2.63.84,2,2,0,0,0-.95,1.7,2.41,2.41,0,0,0,.76,1.76,2.67,2.67,0,0,0,1.93.74,4.2,4.2,0,0,0,2.49-.86,3,3,0,0,0,1.15-1.6,9.35,9.35,0,0,0,.19-2.36v-1Zm18.31-3.68a16,16,0,0,1,1.15-6.47,12.11,12.11,0,0,1,2.35-3.46,9.77,9.77,0,0,1,3.26-2.27,13.78,13.78,0,0,1,5.44-1,11.82,11.82,0,0,1,8.92,3.46q3.35,3.45,3.35,9.61t-3.33,9.56a11.73,11.73,0,0,1-8.87,3.45,11.87,11.87,0,0,1-9-3.43q-3.31-3.43-3.32-9.45Zm5.25-.17c0,2.85.66,5,2,6.49a6.79,6.79,0,0,0,10,0q2-2.19,1.95-6.57t-1.9-6.48a6.44,6.44,0,0,0-5.05-2.13,6.52,6.52,0,0,0-5.08,2.16q-1.92,2.16-1.92,6.52Zm26.77-.07-4.39-.8a6.86,6.86,0,0,1,2.55-3.92,9.3,9.3,0,0,1,5.36-1.27,11.39,11.39,0,0,1,4.82.77,4.75,4.75,0,0,1,2.23,1.94,10,10,0,0,1,.65,4.33l-.06,5.64a19,19,0,0,0,.24,3.55,9.93,9.93,0,0,0,.87,2.45h-4.79c-.12-.32-.28-.8-.46-1.42-.08-.29-.14-.48-.17-.57a9,9,0,0,1-2.65,1.81,7.8,7.8,0,0,1-3,.59,6.27,6.27,0,0,1-4.45-1.52,5.09,5.09,0,0,1-1.63-3.88,5.23,5.23,0,0,1,.74-2.76,4.79,4.79,0,0,1,2.08-1.85,16,16,0,0,1,3.84-1.13,25.64,25.64,0,0,0,4.7-1.19v-.48a2.51,2.51,0,0,0-.69-2,4.16,4.16,0,0,0-2.6-.59,3.43,3.43,0,0,0-2,.51,3.5,3.5,0,0,0-1.17,1.78Zm6.47,3.92c-.62.2-1.6.45-2.95.74a9.24,9.24,0,0,0-2.63.84,2,2,0,0,0-.94,1.7,2.4,2.4,0,0,0,.75,1.76,2.67,2.67,0,0,0,1.93.74,4.23,4.23,0,0,0,2.5-.86,3,3,0,0,0,1.15-1.6,9.35,9.35,0,0,0,.19-2.36v-1ZM458,64.24V39h4.84V52.4L468.46,46h6l-6.24,6.67,6.68,11.6h-5.2l-4.6-8.2-2.25,2.35v5.85Zm19.65-25.15h4.83v3.46a12.08,12.08,0,0,1-.36,3.31A5,5,0,0,1,480.73,48a6.89,6.89,0,0,1-2.56,1.52l-.95-2a4,4,0,0,0,2.08-1.32,3.91,3.91,0,0,0,.66-2.31h-2.34V39.09ZM484.52,59l4.85-.74a3.54,3.54,0,0,0,1.26,2.14,4.19,4.19,0,0,0,2.64.74,4.65,4.65,0,0,0,2.82-.7,1.5,1.5,0,0,0,.64-1.28,1.28,1.28,0,0,0-.34-.92,3.79,3.79,0,0,0-1.62-.63q-5.85-1.29-7.41-2.36a4.7,4.7,0,0,1-2.17-4.12,5,5,0,0,1,1.87-4q1.88-1.62,5.82-1.62a10.16,10.16,0,0,1,5.57,1.22A6.21,6.21,0,0,1,501,50.4l-4.55.84a2.85,2.85,0,0,0-1.11-1.64A4.09,4.09,0,0,0,493,49a5.18,5.18,0,0,0-2.73.54,1.14,1.14,0,0,0-.55,1,1.06,1.06,0,0,0,.48.87,17.81,17.81,0,0,0,4.52,1.37,13.22,13.22,0,0,1,5.39,2.15,4.46,4.46,0,0,1,1.51,3.59,5.49,5.49,0,0,1-2.1,4.32c-1.4,1.21-3.46,1.8-6.21,1.8a10.2,10.2,0,0,1-5.91-1.51A7,7,0,0,1,484.52,59Z"/><path class="cls-2" d="M265.49,96.52l-.65-.19a9.68,9.68,0,0,0-3.65-6.89c-2-1.57-4.89-2.35-8.5-2.35q-9.49,0-15.67,9.17t-6.2,23.46c0,6.53,1.45,11.54,4.31,15s7,5.22,12.41,5.22a27.39,27.39,0,0,0,4.84-.46,47,47,0,0,0,5.69-1.44q.74-4.41,1.22-8.68c.33-2.85.6-5.65.83-8.44l-7.53-1.4.65-2,3.2.24c4.15.33,7,.5,8.49.5,1.27,0,2.85-.06,4.72-.19s4.26-.3,7.16-.55l-.65,2-6.49,1.4c-.52,2.69-.95,5.35-1.27,8s-.57,5.26-.73,7.89a86.66,86.66,0,0,1-14.38,6.12,41.1,41.1,0,0,1-12,2c-6.6,0-11.72-1.9-15.3-5.7s-5.38-9.2-5.38-16.21a41.76,41.76,0,0,1,3-15.44,39.56,39.56,0,0,1,8.28-13.13,36.4,36.4,0,0,1,11.85-8.2,34.76,34.76,0,0,1,13.91-2.94q6.67,0,10.41,1.63c2.49,1.08,3.74,2.57,3.74,4.45,0,1.57-2,3.93-6.13,7l-.14.1Zm24.85,25.18c-.33,1.7-.6,3.3-.78,4.79a31.46,31.46,0,0,0-.28,3.94,9.52,9.52,0,0,0,1.3,5.45,4.3,4.3,0,0,0,3.75,1.89,9.41,9.41,0,0,0,5.07-1.86,32.58,32.58,0,0,0,6.07-5.57l1.58,1.53a42.57,42.57,0,0,1-10.17,9.51q-5.5,3.63-9.6,3.63a6.73,6.73,0,0,1-5.54-2.36,10.57,10.57,0,0,1-1.93-6.78,44.46,44.46,0,0,1,2.25-13.58,35.73,35.73,0,0,1,5.64-11.36,31,31,0,0,1,8.33-7.24c3.33-2,6.14-3,8.47-3a6,6,0,0,1,4.34,1.51,5.62,5.62,0,0,1,1.56,4.2c0,3.1-1.94,6.16-5.79,9.18a31.77,31.77,0,0,1-14.27,6.13Zm.48-2.55a11.11,11.11,0,0,0,7.71-2.74,8.84,8.84,0,0,0,3-6.87,4.6,4.6,0,0,0-.74-2.85,2.63,2.63,0,0,0-2.22-1c-1.68,0-3.18,1.15-4.53,3.45a32,32,0,0,0-3.26,10Zm51.92-5.87a6.58,6.58,0,0,0-1.5-2.14,2.63,2.63,0,0,0-1.74-.65q-3.66,0-8.26,9a71.45,71.45,0,0,0-6.51,22c-1.26.46-2.93,1.11-5,1.95s-3.42,1.38-4.1,1.66q2.36-11.31,3.79-20.88a112.15,112.15,0,0,0,1.41-12.75,3.73,3.73,0,0,0-.35-1.79,1.13,1.13,0,0,0-1.05-.63,3.89,3.89,0,0,0-1.88,1,28.28,28.28,0,0,0-2.9,2.73l-1.4-1.3a60.39,60.39,0,0,1,8.43-7.86c2.44-1.76,4.47-2.64,6.12-2.64a2.19,2.19,0,0,1,1.94.9,5.37,5.37,0,0,1,.61,2.9,51.75,51.75,0,0,1-.68,6.34c-.45,3-1,6.43-1.78,10.15l.18.08a80.54,80.54,0,0,1,9.5-14.94c3-3.63,5.59-5.43,7.62-5.43a2.94,2.94,0,0,1,2.47,1.23,5.25,5.25,0,0,1,.92,3.27,6.36,6.36,0,0,1-1.47,3.74,21.19,21.19,0,0,1-4.38,4.07ZM376,145.1q2.43-11,3.85-20.43A104,104,0,0,0,381.24,112a6.58,6.58,0,0,0-.3-2.5,1.12,1.12,0,0,0-1.09-.65c-.91,0-2.27.92-4.14,2.75a54.38,54.38,0,0,0-11,17.52,56.53,56.53,0,0,0-2.74,12.08c-1.54.58-3.77,1.53-6.67,2.83l-2.42,1q2.37-11.28,3.8-20.83a107.75,107.75,0,0,0,1.44-12.77,3.78,3.78,0,0,0-.4-1.9,1.15,1.15,0,0,0-1-.69,3.55,3.55,0,0,0-1.78,1,37,37,0,0,0-3,2.88l-1.39-1.3a61.38,61.38,0,0,1,8.53-8q3.62-2.64,6-2.64a2.11,2.11,0,0,1,1.92,1,5.56,5.56,0,0,1,.63,3,49.58,49.58,0,0,1-.63,6.13c-.41,2.95-1,6.51-1.82,10.73a92.86,92.86,0,0,1,13-15.15q6.34-5.7,9.83-5.7a2.09,2.09,0,0,1,1.91,1,5.55,5.55,0,0,1,.64,3,40,40,0,0,1-.42,4.67q-.42,3.09-1.94,12.45A86.74,86.74,0,0,1,401,106.56c4.26-3.85,7.6-5.78,10.06-5.78a2.77,2.77,0,0,1,2.26.84,4.4,4.4,0,0,1,.7,2.79q0,1.07-1.67,10.58l-.6,3.48c-.74,4.23-1.3,7.65-1.64,10.24a44,44,0,0,0-.54,5.64,3.2,3.2,0,0,0,.25,1.39.79.79,0,0,0,.68.51,3.31,3.31,0,0,0,1.78-.76,17.75,17.75,0,0,0,2.48-2.44l1.44,1.2A49.57,49.57,0,0,1,409,142c-2.07,1.69-3.91,2.53-5.49,2.53a2.65,2.65,0,0,1-2.35-1.14,6.58,6.58,0,0,1-.76-3.6,85.76,85.76,0,0,1,2-15.08q2-10.07,2-13.73a2.73,2.73,0,0,0-.35-1.6,1.24,1.24,0,0,0-1.09-.49c-.89,0-2.18.84-3.85,2.5a54.6,54.6,0,0,0-5.57,6.83,47.84,47.84,0,0,0-5.61,10.69A54,54,0,0,0,385,141.3c-.85.35-2.33.95-4.39,1.84s-3.62,1.53-4.7,2Zm75.61-38.33c-1,0-2.23,0-3.72-.18s-2.49-.19-3-.19a9.51,9.51,0,0,0-5.58,1.49,11.65,11.65,0,0,0-3.66,4.86,56.82,56.82,0,0,0-3.2,10.55,53.59,53.59,0,0,0-1.34,11,5.23,5.23,0,0,0,.44,2.44,1.37,1.37,0,0,0,1.27.8c2.33,0,5.62-3.13,9.91-9.42a58.66,58.66,0,0,0,8.89-21.4Zm-3.2,17.31a73.45,73.45,0,0,1-12.55,14.81c-4.32,3.8-7.73,5.71-10.2,5.71a2.74,2.74,0,0,1-2.53-1.6,10.45,10.45,0,0,1-.86-4.76q0-16.89,9-27t23.89-10.14h4.36l1.9,0A179.31,179.31,0,0,0,457,119.69a88.08,88.08,0,0,0-1.58,14,4.79,4.79,0,0,0,.3,2,1,1,0,0,0,.95.65,1.84,1.84,0,0,0,1.16-.54,31.53,31.53,0,0,0,2.47-2.47l1.52,1.3a44.84,44.84,0,0,1-7.34,7.3q-3.51,2.67-5.6,2.67a2.52,2.52,0,0,1-2.18-1.11,5.87,5.87,0,0,1-.76-3.25,45.67,45.67,0,0,1,.56-5.93c.38-2.58,1-6,1.82-10.23Zm21.67,21q2.36-11.32,3.79-20.89a112.11,112.11,0,0,0,1.41-12.77,3.58,3.58,0,0,0-.35-1.77,1.14,1.14,0,0,0-1.05-.64,3.85,3.85,0,0,0-1.88,1,28,28,0,0,0-2.9,2.72l-1.39-1.31a62.42,62.42,0,0,1,8.52-8c2.41-1.76,4.4-2.64,6-2.64a2.14,2.14,0,0,1,1.92,1,5.65,5.65,0,0,1,.63,3,54.53,54.53,0,0,1-.7,6.59c-.46,3.15-1.11,6.86-1.95,11.09a90.22,90.22,0,0,1,14-15.53q7.26-6.15,10.63-6.14a2.77,2.77,0,0,1,2,.69,2.9,2.9,0,0,1,.67,2.1c0,2.4-.75,7.24-2.25,14.46S505,130.69,505,134.35a2.91,2.91,0,0,0,.28,1.39.82.82,0,0,0,.68.51,3.25,3.25,0,0,0,1.79-.76,17.2,17.2,0,0,0,2.49-2.44l1.44,1.2a49.57,49.57,0,0,1-7.27,7.72c-2.07,1.69-3.91,2.53-5.49,2.53a2.65,2.65,0,0,1-2.35-1.14,6.58,6.58,0,0,1-.76-3.6q0-4.86,2-15t2.05-14.16a2.5,2.5,0,0,0-.34-1.4,1,1,0,0,0-.91-.5c-1,0-2.4.88-4.3,2.66a55.9,55.9,0,0,0-6.24,7.22,45.54,45.54,0,0,0-5.92,10.68,47.69,47.69,0,0,0-2.81,12.07c-1.33.46-2.72,1-4.15,1.58S472,144.2,470,145.1Z"/><path class="cls-2" d="M236.9,171c-1.21,2.13-2.34,4.2-3.41,6.21s-2.05,4-3,5.82h9q-.45-2.4-1.06-5.2T236.9,171Zm3.58-4.75a117.4,117.4,0,0,0,2,12.06q1.45,7,3.67,14.89l3.49.7-.32.92c-.87-.08-1.74-.13-2.61-.16s-1.91-.05-3.1-.05c-.94,0-1.91,0-2.92.05s-2,.08-3.09.16l.34-.92,3.3-.68c-.1-1-.26-2.24-.48-3.65s-.52-3.15-.9-5.21h-9.91c-1,2-1.86,3.78-2.46,5.2a31.06,31.06,0,0,0-1.33,3.64l3.53.7-.31.92c-.78-.08-1.54-.13-2.3-.16s-1.65-.05-2.67-.05c-1.21,0-2.21,0-3,.05s-1.57.08-2.34.16l.28-.92,3.24-.7q6.51-10.49,10.29-17.4t3.77-8.29a.31.31,0,0,0,0-.11l0-.07,3.94-1.08Zm23.3.87,1.64.11c2.19.15,3.68.23,4.48.23s2.44-.09,4.77-.25q.87-.07,1.32-.09l-.3.92-3.58.7c-.4,1.86-.77,3.75-1.11,5.65s-.65,3.84-.93,5.81a85,85,0,0,0,7.35-6,40.76,40.76,0,0,0,5-5.46l-2.88-.7.36-.92c.88.12,1.75.2,2.6.25s1.69.09,2.49.09,1.4,0,2.23-.09,1.8-.13,2.89-.25l-.37.92-2.79.7c-1.87,1.28-3.75,2.66-5.64,4.16s-3.9,3.19-6,5.09q4.72,9,7.54,12.38c1.88,2.24,3.69,3.41,5.45,3.53l-.4.92h-3.58a11.06,11.06,0,0,1-2.41-.21,3.94,3.94,0,0,1-1.47-.75,20,20,0,0,1-3.21-4.16q-2-3.21-5.29-9.2l-2.19,1.63c-.28,2.19-.52,4.2-.7,6s-.3,3.49-.39,5.07l3.75.7-.34.92c-.92-.08-1.85-.13-2.77-.16s-2-.05-3.35-.05-2.38,0-3.31.05-1.86.08-2.78.16l.3-.92,3.58-.7q1.44-7.2,2.3-13.29t1.15-11.17l-3.77-.7.36-.92ZM314.6,171c-1.21,2.13-2.34,4.2-3.41,6.21s-2.05,4-3,5.82h9q-.45-2.4-1.05-5.2c-.4-1.87-.93-4.15-1.57-6.83Zm3.58-4.75a120.21,120.21,0,0,0,2,12.06q1.46,7,3.67,14.89l3.49.7-.32.92c-.86-.08-1.74-.13-2.61-.16s-1.91-.05-3.1-.05c-.94,0-1.91,0-2.91.05s-2.05.08-3.1.16l.35-.92,3.3-.68c-.1-1-.26-2.24-.48-3.65s-.53-3.15-.91-5.21h-9.91c-1,2-1.85,3.78-2.46,5.2a33,33,0,0,0-1.33,3.64l3.54.7-.32.92c-.77-.08-1.54-.13-2.29-.16s-1.65-.05-2.68-.05c-1.21,0-2.2,0-3,.05s-1.58.08-2.35.16l.28-.92,3.24-.7q6.52-10.49,10.3-17.4t3.76-8.29a.18.18,0,0,0,0-.11.43.43,0,0,0,0-.07l3.94-1.08Zm19.38,28.57.3-.92,3.59-.7q1.44-7.2,2.29-13.29t1.15-11.17l-3.76-.7.35-.92c1.27.1,2.44.18,3.52.23s2,.07,2.85.07,2.5-.08,4.59-.23,3.68-.24,4.79-.24q5.06,0,7.54,2.48t2.5,7.52a19.54,19.54,0,0,1-1.47,7.55,17.6,17.6,0,0,1-4.16,6.1,14.44,14.44,0,0,1-5.37,3.23,24.16,24.16,0,0,1-7.5,1c-.41,0-1.27,0-2.59-.11s-2.41-.1-3.31-.1c-.51,0-1.17,0-2,.05s-1.92.08-3.33.16Zm8.8-2c.73.15,1.49.28,2.26.36a23.68,23.68,0,0,0,2.41.13q5.84,0,8.69-3.69t2.84-11.2q0-4.87-2.1-7.44a7.46,7.46,0,0,0-6.1-2.55,15.81,15.81,0,0,0-2,.13c-.73.08-1.59.22-2.58.4q-1.27,5.49-2.14,11.5t-1.32,12.36Zm35.83-25.7c1.55.12,3.06.2,4.54.26s3.15.09,5,.09,3.83-.06,5.87-.18l3.33-.17a.76.76,0,0,1,.58.21,1.19,1.19,0,0,1,.17.71,3.11,3.11,0,0,1-.05.41c0,.08,0,.14,0,.19l-.92,3.85-.91.22,0-1.17V171c0-.56-.52-1-1.54-1.21a56.46,56.46,0,0,0-7.79-.75c-.34,1.46-.68,3.09-1,4.89s-.64,3.75-.92,5.85c1.29,0,2.6,0,3.9-.1s2.65-.15,4-.26l1-2.3,1.08-.41c-.38,1.24-.7,2.51-1,3.81a39.8,39.8,0,0,0-.64,4.05l-1,.58,0-3.37q-1.53-.21-3.45-.36c-1.28-.1-2.69-.17-4.22-.22q-.51,3.58-.81,6.49c-.2,1.94-.33,3.71-.38,5.33h1.66a36.25,36.25,0,0,0,7.71-.59c1.68-.4,2.74-1.06,3.19-2l.67-1.26,1-.25L400,193.46a2.5,2.5,0,0,1-.55,1.17,2.75,2.75,0,0,1-1.41.22h-.26l-1.56,0q-5.22-.21-10-.21-3,0-4.74.06c-1.14.05-2.23.1-3.27.19l.3-1,3.58-.71q1.38-6.66,2.25-12.79c.57-4.08,1-8,1.2-11.61l-3.71-.75.3-.88Zm28.93,27.66.34-.92,3.62-.7q1.76-4.53,3.56-10.73t3.56-13.73l-3.82-.7.37-.88c.94.12,1.85.2,2.75.26s1.78.09,2.66.09h1l1.6-.08q.52,4.17,1.59,9.37c.69,3.45,1.57,7.21,2.61,11.28l7.6-12.79c.72-1.25,1.41-2.53,2.05-3.84s1.23-2.67,1.79-4.07c.22,0,.72,0,1.47.08s1.35.06,1.79.06c.95,0,1.89,0,2.83-.09s1.88-.14,2.82-.26L451,168l-3.58.7q-.92,5.76-1.4,11.54t-.48,11.5v1.42l3.8.7-.31.92c-.89-.08-1.8-.13-2.73-.16s-2.12-.05-3.55-.05c-1.18,0-2.22,0-3.11.05s-1.81.08-2.73.16l.3-.92,3.58-.7q.67-5,1.14-10.49c.3-3.68.55-7.53.73-11.58-.7,1.07-1.44,2.22-2.2,3.46s-1.62,2.7-2.59,4.36L435.45,183c-1.46,2.52-2.5,4.46-3.13,5.8a21.11,21.11,0,0,0-1.36,3.67l-3,1.75a97.9,97.9,0,0,0-2.11-10.66q-1.8-7.73-2.59-12.56-1.77,6-2.93,11.56t-1.7,10.64l3.62.7-.36.92c-.92-.08-1.83-.13-2.71-.16s-1.76-.05-2.62-.05c-1.19,0-2.19,0-3,.05s-1.64.08-2.46.16Zm49.61,0,.3-.92,3.57-.7q1.39-6.75,2.26-12.88t1.2-11.58l-3.71-.7.3-.92c1.37.12,2.54.2,3.54.25s1.86.09,2.62.09,2.23-.08,4.35-.23l1.7-.11-.3.92-3.58.7q-1.41,6.79-2.27,13c-.57,4.11-1,7.94-1.14,11.5l3.71.7-.34.92c-.91-.08-1.83-.13-2.74-.16s-2-.05-3.38-.05-2.41,0-3.34.05-1.84.08-2.75.16Zm29-27.66c1.55.12,3.07.2,4.54.26s3.15.09,5,.09,3.84-.06,5.87-.18l3.33-.17a.76.76,0,0,1,.59.21,1.2,1.2,0,0,1,.16.71,2.71,2.71,0,0,1,0,.41c0,.08,0,.14,0,.19l-.92,3.85-.92.22,0-1.17V171c0-.56-.52-1-1.54-1.21a56.66,56.66,0,0,0-7.79-.75c-.35,1.46-.68,3.09-1,4.89s-.63,3.75-.91,5.85c1.29,0,2.59,0,3.9-.1s2.64-.15,4-.26l1-2.3,1.08-.41c-.38,1.24-.71,2.51-1,3.81s-.48,2.66-.64,4.05l-1,.58.05-3.37c-1-.14-2.18-.26-3.46-.36s-2.68-.17-4.22-.22q-.51,3.58-.8,6.49c-.21,1.94-.33,3.71-.39,5.33h1.67a36.32,36.32,0,0,0,7.71-.59c1.68-.4,2.74-1.06,3.19-2l.66-1.26,1-.25-1.31,4.57a2.5,2.5,0,0,1-.55,1.17,2.79,2.79,0,0,1-1.42.22h-.25l-1.56,0c-3.48-.14-6.81-.21-10-.21q-3,0-4.74.06c-1.14.05-2.24.1-3.28.19l.3-1,3.59-.71q1.38-6.66,2.25-12.79c.57-4.08,1-8,1.2-11.61l-3.71-.75.29-.88Z"/><polygon class="cls-3" points="46.57 39.55 45.57 73.82 107.52 86.29 171.79 74.11 172.19 29.07 46.57 39.55 46.57 39.55"/><polygon class="cls-4" points="0 26.08 109.51 0 212.11 26.57 113.25 58.83 0 26.08 0 26.08"/><polygon class="cls-5" points="27.14 29.06 121.53 6.77 112.72 4.63 19.92 26.85 27.14 29.06 27.14 29.06"/><polygon class="cls-4" points="25.8 32.4 30.73 32.4 30.73 127.53 25.8 127.53 25.8 32.4 25.8 32.4"/><path class="cls-4" d="M28.27,124.45a6.65,6.65,0,1,1-6.41,6.65,6.53,6.53,0,0,1,6.41-6.65Z"/><polygon class="cls-6" points="128.74 185.51 88.27 185.51 88.27 89.5 107.39 94.14 128.4 89.62 128.74 185.51 128.74 185.51"/><polygon class="cls-4" points="45.5 79.11 88.27 89.5 88.27 185.51 46.55 185.51 45.5 79.11 45.5 79.11"/><polygon class="cls-7" points="170.45 79.9 128.37 90.12 128.74 185.51 170.45 185.51 170.45 79.9 170.45 79.9"/><polygon class="cls-8" points="48.55 186.44 166.76 186.33 120.79 239.92 95.75 239.78 48.55 186.44 48.55 186.44"/><path class="cls-2" d="M108.05,259,43.5,184.88,44,78.41l62.77,13.12,65.67-13.16-1.59,107.91ZM47.61,183.35,108,252.76l58.77-68L168.3,83.39,106.79,95.72,48.12,83.45Z"/><polygon class="cls-4" points="94.31 239.12 122.68 239.12 108.21 258.13 94.31 239.12 94.31 239.12"/><rect class="cls-2" x="46.77" y="183.46" width="121.66" height="4.09"/><path class="cls-9" d="M512,204.07H217.52v-1.48H512Zm0-47.62H217.52V155H512Z"/></g></g></svg>