<svg xmlns="http://www.w3.org/2000/svg" viewBox="0 0 64 32.38"><defs><style>.cls-1{fill:#dd3226;}.cls-2,.cls-3{fill:#010101;}.cls-3,.cls-4,.cls-5,.cls-6,.cls-7{fill-rule:evenodd;}.cls-4{fill:#fff;}.cls-5{fill:#ef4723;}.cls-6{fill:#fcee23;}.cls-7{fill:#fed8aa;}.cls-8{fill:#231f20;}</style></defs><title>64</title><g id="Layer_2" data-name="Layer 2"><g id="Layer_1-2" data-name="Layer 1"><path class="cls-1" d="M30.1,4.88h1.16a2.3,2.3,0,0,1,.6.06,1,1,0,0,1,.48.29,1.44,1.44,0,0,1,.3.51,2.28,2.28,0,0,1,.1.74,2,2,0,0,1-.1.68,1.39,1.39,0,0,1-.34.55,1,1,0,0,1-.44.25,1.76,1.76,0,0,1-.57.07H30.1V4.88Zm.63.53V7.5h.48a1.68,1.68,0,0,0,.38,0,.64.64,0,0,0,.26-.13A.74.74,0,0,0,32,7a2.16,2.16,0,0,0,.06-.57A2.1,2.1,0,0,0,32,5.89a.85.85,0,0,0-.18-.3.71.71,0,0,0-.3-.15,2.87,2.87,0,0,0-.52,0Zm3,1-.55-.1a.87.87,0,0,1,.32-.49,1.2,1.2,0,0,1,.67-.16,1.48,1.48,0,0,1,.6.1.67.67,0,0,1,.28.24,1.32,1.32,0,0,1,.08.54v.71a2.29,2.29,0,0,0,0,.44,1.45,1.45,0,0,0,.11.31h-.6a1.84,1.84,0,0,0-.06-.18s0-.06,0-.07a1,1,0,0,1-.33.23.94.94,0,0,1-.37.07.76.76,0,0,1-.56-.19.62.62,0,0,1-.2-.48.68.68,0,0,1,.09-.35.58.58,0,0,1,.26-.23A2.18,2.18,0,0,1,34,6.69a2.84,2.84,0,0,0,.59-.15V6.48a.3.3,0,0,0-.09-.25.54.54,0,0,0-.33-.07.46.46,0,0,0-.25.06.4.4,0,0,0-.14.22Zm.81.49-.37.1a1.08,1.08,0,0,0-.33.1.26.26,0,0,0-.12.21.29.29,0,0,0,.09.22.33.33,0,0,0,.25.1.53.53,0,0,0,.31-.11.39.39,0,0,0,.14-.2,1,1,0,0,0,0-.3V6.93ZM36.3,8h-.6V5.75h.56v.32a1,1,0,0,1,.26-.3.47.47,0,0,1,.26-.08.75.75,0,0,1,.4.12L37,6.34a.48.48,0,0,0-.28-.1.32.32,0,0,0-.22.07.48.48,0,0,0-.14.25,3.86,3.86,0,0,0-.05.76V8Zm.93-.65.6-.09a.46.46,0,0,0,.16.26.54.54,0,0,0,.33.1.56.56,0,0,0,.35-.09.17.17,0,0,0,.08-.16.16.16,0,0,0,0-.12l-.2-.08a3,3,0,0,1-.93-.29.58.58,0,0,1-.27-.51.64.64,0,0,1,.23-.5,1.08,1.08,0,0,1,.73-.21,1.29,1.29,0,0,1,.7.16.78.78,0,0,1,.31.45l-.57.1a.35.35,0,0,0-.14-.2.46.46,0,0,0-.29-.07.59.59,0,0,0-.34.07.13.13,0,0,0-.07.12.14.14,0,0,0,.06.11,2.69,2.69,0,0,0,.57.17,1.59,1.59,0,0,1,.67.27.53.53,0,0,1,.19.45.7.7,0,0,1-.26.54,1.19,1.19,0,0,1-.78.22,1.25,1.25,0,0,1-.74-.19.81.81,0,0,1-.35-.51Zm3.26-2.5V6a.9.9,0,0,1,.7-.35,1,1,0,0,1,.38.08.63.63,0,0,1,.25.2.64.64,0,0,1,.11.27,1.67,1.67,0,0,1,0,.45V8h-.61V6.82a1.94,1.94,0,0,0,0-.45.4.4,0,0,0-.12-.16.48.48,0,0,0-.22,0,.5.5,0,0,0-.27.07.38.38,0,0,0-.17.22,1.22,1.22,0,0,0-.06.44V8h-.6V4.88ZM44.66,8h-.61V6.86a1.57,1.57,0,0,0,0-.47.27.27,0,0,0-.12-.17.37.37,0,0,0-.21-.06.51.51,0,0,0-.28.08.42.42,0,0,0-.17.23,1.65,1.65,0,0,0,0,.53V8h-.61V5.75h.57v.33a.91.91,0,0,1,.75-.39.86.86,0,0,1,.36.08A.54.54,0,0,1,44.5,6a.64.64,0,0,1,.12.25,1.48,1.48,0,0,1,0,.41V8Zm1.06-1.59-.55-.1a.87.87,0,0,1,.32-.49,1.2,1.2,0,0,1,.67-.16,1.48,1.48,0,0,1,.6.1A.57.57,0,0,1,47,6a1.17,1.17,0,0,1,.08.54v.71a2.29,2.29,0,0,0,0,.44,1,1,0,0,0,.1.31h-.59a.93.93,0,0,1-.06-.18l0-.07a1.32,1.32,0,0,1-.33.23,1,1,0,0,1-.38.07.78.78,0,0,1-.56-.19.66.66,0,0,1-.2-.48.68.68,0,0,1,.09-.35.58.58,0,0,1,.26-.23,2.18,2.18,0,0,1,.48-.14,2.84,2.84,0,0,0,.59-.15V6.48a.3.3,0,0,0-.09-.25.49.49,0,0,0-.32-.07.44.44,0,0,0-.25.06.47.47,0,0,0-.15.22Zm.81.49-.37.1a1.08,1.08,0,0,0-.33.1.26.26,0,0,0-.12.21.3.3,0,0,0,.1.22.3.3,0,0,0,.24.1.53.53,0,0,0,.31-.11.41.41,0,0,0,.15-.2,1.7,1.7,0,0,0,0-.3V6.93Zm1.64-.49-.55-.1a.87.87,0,0,1,.32-.49,1.2,1.2,0,0,1,.67-.16,1.48,1.48,0,0,1,.6.1.57.57,0,0,1,.28.24,1.17,1.17,0,0,1,.08.54v.71a2.29,2.29,0,0,0,0,.44,1,1,0,0,0,.1.31h-.59a.93.93,0,0,1-.06-.18l0-.07A1.32,1.32,0,0,1,48.7,8a1,1,0,0,1-.38.07.78.78,0,0,1-.56-.19.66.66,0,0,1-.2-.48.68.68,0,0,1,.09-.35.58.58,0,0,1,.26-.23,2.18,2.18,0,0,1,.48-.14A2.84,2.84,0,0,0,49,6.54V6.48a.3.3,0,0,0-.09-.25.49.49,0,0,0-.32-.07.44.44,0,0,0-.25.06.47.47,0,0,0-.15.22Zm.81.49-.37.1a1.08,1.08,0,0,0-.33.1.26.26,0,0,0-.12.21.3.3,0,0,0,.1.22.3.3,0,0,0,.24.1.53.53,0,0,0,.31-.11.48.48,0,0,0,.15-.2,1.7,1.7,0,0,0,0-.3V6.93Zm2.29-.46a2.14,2.14,0,0,1,.14-.81,1.39,1.39,0,0,1,.3-.43,1.32,1.32,0,0,1,.4-.28,1.83,1.83,0,0,1,.68-.13,1.48,1.48,0,0,1,1.12.44,1.62,1.62,0,0,1,.42,1.2,1.61,1.61,0,0,1-.42,1.19,1.47,1.47,0,0,1-1.11.43,1.51,1.51,0,0,1-1.12-.42,1.69,1.69,0,0,1-.41-1.19Zm.65,0a1.19,1.19,0,0,0,.25.81.81.81,0,0,0,.63.28.8.8,0,0,0,.62-.27,1.19,1.19,0,0,0,.25-.83,1.19,1.19,0,0,0-.24-.81.89.89,0,0,0-1.27,0,1.19,1.19,0,0,0-.24.81Zm3.35,0-.55-.1A.87.87,0,0,1,55,5.85a1.2,1.2,0,0,1,.67-.16,1.48,1.48,0,0,1,.6.1.62.62,0,0,1,.28.24,1.32,1.32,0,0,1,.08.54v.71a2.51,2.51,0,0,0,0,.44A1.45,1.45,0,0,0,56.8,8h-.59a.93.93,0,0,1-.06-.18l0-.07a1.2,1.2,0,0,1-.34.23.9.9,0,0,1-.37.07.78.78,0,0,1-.56-.19.66.66,0,0,1-.2-.48.68.68,0,0,1,.09-.35A.58.58,0,0,1,55,6.83a2.18,2.18,0,0,1,.48-.14,2.84,2.84,0,0,0,.59-.15V6.48A.3.3,0,0,0,56,6.23a.49.49,0,0,0-.32-.07.44.44,0,0,0-.25.06.47.47,0,0,0-.15.22Zm.81.49-.37.1a1.08,1.08,0,0,0-.33.1.26.26,0,0,0-.12.21.27.27,0,0,0,.1.22.3.3,0,0,0,.24.1.53.53,0,0,0,.31-.11.39.39,0,0,0,.14-.2,1,1,0,0,0,0-.3V6.93ZM57.25,8V4.88h.6V6.55l.71-.8h.74l-.78.83L59.36,8h-.65l-.58-1-.28.3V8ZM59.7,4.89h.61v.43a1.47,1.47,0,0,1-.05.41.65.65,0,0,1-.17.27.69.69,0,0,1-.32.19l-.12-.25a.47.47,0,0,0,.26-.16A.5.5,0,0,0,60,5.49h-.3v-.6Zm.86,2.49.61-.09a.46.46,0,0,0,.16.26.54.54,0,0,0,.33.1A.56.56,0,0,0,62,7.56a.17.17,0,0,0,.08-.16.16.16,0,0,0,0-.12.88.88,0,0,0-.2-.08,3,3,0,0,1-.93-.29.58.58,0,0,1-.27-.51.64.64,0,0,1,.23-.5,1.08,1.08,0,0,1,.73-.21,1.32,1.32,0,0,1,.7.16.78.78,0,0,1,.31.45l-.57.1a.35.35,0,0,0-.14-.2.48.48,0,0,0-.29-.07.59.59,0,0,0-.34.07.13.13,0,0,0-.07.12.14.14,0,0,0,.06.11,2.51,2.51,0,0,0,.56.17,1.58,1.58,0,0,1,.68.27.56.56,0,0,1,.19.45.7.7,0,0,1-.26.54,1.19,1.19,0,0,1-.78.22,1.25,1.25,0,0,1-.74-.19.86.86,0,0,1-.36-.51Z"/><path class="cls-2" d="M33.19,12.06l-.09,0a1.18,1.18,0,0,0-.45-.86,1.69,1.69,0,0,0-1.06-.29,2.29,2.29,0,0,0-2,1.14A5.12,5.12,0,0,0,28.85,15a2.86,2.86,0,0,0,.54,1.87,1.89,1.89,0,0,0,1.55.65,4.55,4.55,0,0,0,.61,0,6.73,6.73,0,0,0,.71-.18c.06-.37.11-.73.15-1.09s.08-.71.1-1.05l-.94-.18.09-.25.4,0c.51,0,.87.07,1.06.07l.59,0,.89-.07-.08.25-.81.18c-.07.33-.12.67-.16,1s-.07.66-.09,1a10.65,10.65,0,0,1-1.8.76,5,5,0,0,1-1.5.25,2.46,2.46,0,0,1-1.91-.71,2.82,2.82,0,0,1-.68-2A5.27,5.27,0,0,1,28,13.44a5,5,0,0,1,1-1.64,4.61,4.61,0,0,1,1.48-1,4.29,4.29,0,0,1,1.74-.37,3.23,3.23,0,0,1,1.3.21c.31.13.47.32.47.55s-.26.49-.77.88Zm3.1,3.15q-.06.31-.09.6a3.1,3.1,0,0,0,0,.49,1.21,1.21,0,0,0,.16.69.56.56,0,0,0,.47.23,1.25,1.25,0,0,0,.64-.23,4.24,4.24,0,0,0,.75-.7l.2.19a5.06,5.06,0,0,1-1.27,1.19,2.24,2.24,0,0,1-1.2.46.83.83,0,0,1-.69-.3A1.32,1.32,0,0,1,35,17a5.48,5.48,0,0,1,.28-1.69,4.48,4.48,0,0,1,.7-1.42A4,4,0,0,1,37,13a2.17,2.17,0,0,1,1.06-.37.81.81,0,0,1,.55.18.74.74,0,0,1,.19.53,1.54,1.54,0,0,1-.72,1.15,4,4,0,0,1-1.79.76Zm.06-.32a1.4,1.4,0,0,0,1-.34,1.12,1.12,0,0,0,.38-.86.56.56,0,0,0-.1-.35.32.32,0,0,0-.27-.12c-.21,0-.4.14-.57.43a4.16,4.16,0,0,0-.41,1.24Zm6.49-.73a.75.75,0,0,0-.19-.27.32.32,0,0,0-.21-.08c-.31,0-.65.38-1,1.13a8.83,8.83,0,0,0-.82,2.75c-.16,0-.36.13-.62.24l-.52.21c.2-.94.36-1.82.48-2.61a12.78,12.78,0,0,0,.17-1.6.46.46,0,0,0,0-.22.14.14,0,0,0-.13-.08.47.47,0,0,0-.24.13,3.45,3.45,0,0,0-.36.34l-.17-.17a8,8,0,0,1,1.05-1,1.43,1.43,0,0,1,.77-.33.28.28,0,0,1,.24.11.71.71,0,0,1,.07.37,5.61,5.61,0,0,1-.08.79c-.06.38-.13.8-.22,1.27h0A10.34,10.34,0,0,1,42.2,13.3c.38-.45.7-.68.95-.68a.36.36,0,0,1,.31.16.61.61,0,0,1,.11.4.79.79,0,0,1-.18.47,2.51,2.51,0,0,1-.55.51Zm4.15,4c.21-.92.37-1.77.48-2.56A11.65,11.65,0,0,0,47.66,14a1,1,0,0,0,0-.31.13.13,0,0,0-.14-.08c-.11,0-.28.11-.52.34a5.88,5.88,0,0,0-.7.89,5.79,5.79,0,0,0-.68,1.3,7.82,7.82,0,0,0-.34,1.51c-.19.07-.47.19-.83.36l-.31.12c.2-.94.36-1.81.48-2.6a13.5,13.5,0,0,0,.18-1.6.54.54,0,0,0,0-.24.14.14,0,0,0-.13-.08.43.43,0,0,0-.22.12l-.38.36-.17-.16a7.6,7.6,0,0,1,1.07-1,1.38,1.38,0,0,1,.75-.33.26.26,0,0,1,.23.12.65.65,0,0,1,.08.38,5.19,5.19,0,0,1-.08.76c0,.37-.12.82-.22,1.34a11.94,11.94,0,0,1,1.62-1.89,2.21,2.21,0,0,1,1.23-.71.26.26,0,0,1,.24.12.74.74,0,0,1,.08.38c0,.13,0,.32-.05.58s-.12.78-.25,1.56a11,11,0,0,1,1.62-1.92,2.23,2.23,0,0,1,1.26-.72.34.34,0,0,1,.28.1.54.54,0,0,1,.09.35q0,.13-.21,1.32l-.08.44c-.09.53-.16,1-.2,1.28a5,5,0,0,0-.07.7.45.45,0,0,0,0,.18.1.1,0,0,0,.09.06.42.42,0,0,0,.22-.09,2.24,2.24,0,0,0,.31-.31l.18.15a6.34,6.34,0,0,1-.91,1,1.15,1.15,0,0,1-.69.31.32.32,0,0,1-.29-.14.87.87,0,0,1-.09-.45,10.91,10.91,0,0,1,.24-1.88,10.49,10.49,0,0,0,.25-1.72.35.35,0,0,0,0-.2.16.16,0,0,0-.14-.06c-.11,0-.27.1-.48.31a6.25,6.25,0,0,0-.69.85,6.4,6.4,0,0,0-.71,1.34,6.92,6.92,0,0,0-.35,1.55l-.55.23-.59.25Zm9.46-4.79-.47,0-.38,0a1.13,1.13,0,0,0-.69.19,1.4,1.4,0,0,0-.46.6,6.71,6.71,0,0,0-.4,1.32,7,7,0,0,0-.17,1.38.63.63,0,0,0,.06.31.16.16,0,0,0,.15.1c.3,0,.71-.39,1.24-1.18a7.32,7.32,0,0,0,1.12-2.67Zm-.4,2.16a9.33,9.33,0,0,1-1.57,1.85,2.27,2.27,0,0,1-1.28.71.34.34,0,0,1-.32-.2,1.31,1.31,0,0,1-.1-.59A4.91,4.91,0,0,1,53.9,13.9a3.78,3.78,0,0,1,3-1.27h.78A21,21,0,0,0,57.13,15a11.44,11.44,0,0,0-.2,1.75A.54.54,0,0,0,57,17a.12.12,0,0,0,.12.08.24.24,0,0,0,.14-.06,4.27,4.27,0,0,0,.31-.31l.19.16a5.19,5.19,0,0,1-.91.91,1.35,1.35,0,0,1-.71.33.32.32,0,0,1-.27-.13.78.78,0,0,1-.09-.41,5,5,0,0,1,.07-.74c0-.32.12-.75.23-1.28Zm2.7,2.63q.3-1.42.48-2.61a15.16,15.16,0,0,0,.17-1.6.43.43,0,0,0,0-.22.13.13,0,0,0-.13-.08.51.51,0,0,0-.24.12l-.36.34-.17-.16a7.61,7.61,0,0,1,1.06-1,1.38,1.38,0,0,1,.75-.33.26.26,0,0,1,.24.12.65.65,0,0,1,.08.38,8.14,8.14,0,0,1-.08.82c-.06.39-.14.86-.25,1.39A11.24,11.24,0,0,1,62,13.37a2.59,2.59,0,0,1,1.33-.77.37.37,0,0,1,.25.08.36.36,0,0,1,.08.27,10.84,10.84,0,0,1-.28,1.8,11.86,11.86,0,0,0-.28,2,.32.32,0,0,0,0,.18.09.09,0,0,0,.08.06.42.42,0,0,0,.23-.09,3,3,0,0,0,.31-.31l.18.15a6.34,6.34,0,0,1-.91,1,1.15,1.15,0,0,1-.69.31.31.31,0,0,1-.29-.14.86.86,0,0,1-.1-.45,10.76,10.76,0,0,1,.26-1.88,10.59,10.59,0,0,0,.25-1.77.29.29,0,0,0,0-.17.12.12,0,0,0-.11-.07c-.12,0-.3.11-.54.34a6.3,6.3,0,0,0-.78.9,5.66,5.66,0,0,0-.74,1.33,6.06,6.06,0,0,0-.35,1.51l-.52.2-.65.28Z"/><path class="cls-2" d="M29.61,21.37l-.42.78c-.14.25-.26.49-.37.73h1.12c0-.2-.08-.42-.13-.65s-.12-.52-.2-.86Zm.45-.59a12.39,12.39,0,0,0,.25,1.51q.18.87.45,1.86l.44.09,0,.11-.33,0h-.75l-.38,0,0-.11.41-.09c0-.13,0-.28-.06-.46S30,23.3,30,23H28.74c-.13.26-.23.48-.31.65a3.67,3.67,0,0,0-.16.46l.44.09,0,.11-.29,0h-.71l-.29,0,0-.11.41-.09c.54-.87,1-1.6,1.28-2.18a3.92,3.92,0,0,0,.48-1v0h0l.49-.14Zm2.91.11h.21l.56,0,.59,0h.17l0,.11-.45.09c0,.23-.09.47-.13.71s-.09.48-.12.72a9.29,9.29,0,0,0,.92-.75,5.39,5.39,0,0,0,.63-.68L35,21l0-.11.33,0h.59l.36,0-.05.11-.35.09c-.23.16-.47.33-.7.52s-.49.4-.76.64a9.49,9.49,0,0,0,1,1.54,1.07,1.07,0,0,0,.68.45l0,.11h-.45a1.15,1.15,0,0,1-.3,0,.31.31,0,0,1-.18-.09,2.54,2.54,0,0,1-.41-.52c-.17-.27-.39-.65-.66-1.15l-.27.2c0,.28-.07.53-.09.76s0,.43-.05.63l.47.09,0,.11-.35,0h-.83l-.35,0,0-.11.45-.09c.12-.6.21-1.15.29-1.66s.11-1,.14-1.4L32.93,21l0-.11Zm6.36.48c-.16.27-.3.53-.43.78s-.26.49-.37.73h1.12c0-.2-.08-.42-.13-.65s-.11-.52-.19-.86Zm.44-.59c0,.42.13.93.25,1.51s.27,1.2.46,1.86l.43.09,0,.11-.32,0h-.76l-.38,0,0-.11.41-.09c0-.13,0-.28-.06-.46s-.06-.39-.11-.65H38.45c-.13.26-.23.48-.31.65a3.67,3.67,0,0,0-.16.46l.44.09,0,.11-.29,0h-.71l-.29,0,0-.11.4-.09c.54-.87,1-1.6,1.29-2.18a4.1,4.1,0,0,0,.47-1v0h0l.49-.14Zm2.43,3.57,0-.11.45-.09c.12-.6.22-1.15.29-1.66s.12-1,.14-1.4L42.64,21l0-.11.44,0h.35l.57,0,.6,0a1.1,1.1,0,0,1,1.26,1.25,2.29,2.29,0,0,1-.19.94,2.12,2.12,0,0,1-.51.76,1.91,1.91,0,0,1-.68.41,3,3,0,0,1-.93.12h-.33l-.41,0h-.25l-.41,0Zm1.1-.24.28,0,.3,0A1.28,1.28,0,0,0,45,23.71a2.27,2.27,0,0,0,.36-1.4,1.45,1.45,0,0,0-.26-.93.92.92,0,0,0-.77-.32h-.24l-.32.05q-.16.69-.27,1.44c-.07.5-.13,1-.16,1.55Zm4.47-3.22.57,0H49l.73,0,.42,0a.08.08,0,0,1,.07,0,.2.2,0,0,1,0,.09v.07l-.11.49-.12,0v-.22c0-.07-.07-.12-.2-.15a5.8,5.8,0,0,0-1-.1l-.13.62c0,.22-.07.46-.11.73l.49,0,.5,0,.12-.29.14-.05a4.21,4.21,0,0,0-.12.48,3.89,3.89,0,0,0-.08.51l-.12.07v-.42l-.43,0-.53,0c0,.3-.07.57-.1.82s0,.46,0,.66h.21a4.62,4.62,0,0,0,1-.07.55.55,0,0,0,.4-.25l.08-.16.12,0-.17.57a.37.37,0,0,1-.06.15.36.36,0,0,1-.18,0h-.23l-1.24,0h-.6l-.41,0,0-.12.45-.09c.11-.56.21-1.09.28-1.6s.12-1,.15-1.45l-.46-.1,0-.11Zm3.62,3.46,0-.11.46-.09c.14-.38.29-.83.44-1.34s.3-1.09.44-1.72L52.3,21l0-.11.35,0h.65c0,.34.11.73.2,1.17s.19.9.32,1.41l1-1.6c.09-.16.17-.32.25-.48a4.61,4.61,0,0,0,.22-.51h.77l.35,0,0,.11-.45.09c-.08.48-.13,1-.17,1.44s-.06,1-.06,1.44v.18l.47.09,0,.11-.34,0H55l-.34,0,0-.11.45-.09c.06-.42.11-.85.14-1.31s.07-.94.1-1.45l-.28.43-.32.55-.3.5c-.18.32-.31.56-.39.73a3,3,0,0,0-.17.46l-.37.22c0-.25-.11-.69-.26-1.34s-.26-1.16-.33-1.57c-.15.5-.27,1-.36,1.45s-.17.9-.22,1.33l.46.09,0,.11-.34,0h-.7l-.31,0Zm6.2,0,0-.11.45-.09c.11-.56.2-1.1.28-1.61s.12-1,.15-1.45L58,21l0-.11.44,0h.33l.54,0h.22l0,.11-.45.09c-.11.57-.21,1.11-.28,1.62s-.12,1-.14,1.44l.46.09,0,.11-.35,0h-.83l-.35,0Zm3.63-3.46.57,0h.63l.73,0,.42,0a.09.09,0,0,1,.07,0,.2.2,0,0,1,0,.09.11.11,0,0,1,0,0v0l-.12.49-.11,0v-.22c0-.07-.06-.12-.19-.15a5.8,5.8,0,0,0-1-.1c0,.19-.09.39-.13.62s-.08.46-.11.73l.49,0,.5,0,.12-.29.14-.05a4.21,4.21,0,0,0-.12.48,2.72,2.72,0,0,0-.08.51l-.12.07v-.42l-.43,0-.53,0c0,.3-.07.57-.1.82s0,.46,0,.66h.21a4.51,4.51,0,0,0,1-.07c.21-.05.35-.13.4-.25l.09-.16.12,0-.17.57c0,.08,0,.13-.07.15a.29.29,0,0,1-.17,0H63l-1.25,0h-.59l-.41,0,0-.12.45-.09c.11-.56.21-1.09.28-1.6s.12-1,.15-1.45l-.47-.1,0-.11Z"/><polygon class="cls-3" points="5.82 4.94 5.7 9.23 13.44 10.79 21.47 9.26 21.52 3.63 5.82 4.94 5.82 4.94"/><path class="cls-2" d="M13.44,10.87h0L5.61,9.3l.13-4.44h.07l15.8-1.32-.05,5.8ZM5.78,9.16l7.66,1.54,8-1.51.05-5.46L5.91,5Z"/><polygon class="cls-3" points="0 3.26 13.69 0 26.51 3.32 14.16 7.35 0 3.26 0 3.26"/><polygon class="cls-4" points="3.39 3.63 15.19 0.85 14.09 0.58 2.49 3.36 3.39 3.63 3.39 3.63"/><polygon class="cls-3" points="3.23 4.05 3.84 4.05 3.84 15.94 3.23 15.94 3.23 4.05 3.23 4.05"/><path class="cls-3" d="M3.53,15.56a.83.83,0,1,1-.8.83.81.81,0,0,1,.8-.83Z"/><polygon class="cls-5" points="16.09 23.19 11.03 23.19 11.03 11.19 13.42 11.77 16.05 11.2 16.09 23.19 16.09 23.19"/><polygon class="cls-3" points="5.69 9.89 11.03 11.19 11.03 23.19 5.82 23.19 5.69 9.89 5.69 9.89"/><polygon class="cls-6" points="21.31 9.99 16.05 11.27 16.09 23.19 21.31 23.19 21.31 9.99 21.31 9.99"/><polygon class="cls-7" points="6.07 23.3 20.84 23.29 15.1 29.99 11.97 29.97 6.07 23.3 6.07 23.3"/><path class="cls-2" d="M13.51,32.38,5.44,23.11,5.51,9.8l7.84,1.64L21.56,9.8l-.2,13.49ZM6,22.92,13.5,31.6l7.35-8.51L21,10.42,13.35,12,6,10.43Z"/><polygon class="cls-3" points="11.79 29.89 15.34 29.89 13.53 32.27 11.79 29.89 11.79 29.89"/><rect class="cls-2" x="5.85" y="22.93" width="15.21" height="0.51"/><path class="cls-8" d="M64,25.51H27.19v-.19H64Zm0-6H27.19v-.19H64Z"/></g></g></svg>